<svg fill="#32CD32" xmlns="http://www.w3.org/2000/svg" xmlns:xlink="http://www.w3.org/1999/xlink" version="1.1" x="0px" y="0px" viewBox="0 0 100 100" enable-background="new 0 0 100 100" xml:space="preserve"><path d="M71.744,64.717c0.658-0.21,1.307-0.453,1.946-0.738c11.423-5.097,16.569-18.537,11.472-29.96  c-6.298-14.113-22.901-20.472-37.017-14.173c-8.466,3.777-14.954,10.625-18.269,19.284c-3.315,8.657-3.06,18.088,0.718,26.554  l0.061,0.137c-2.031-0.785-4.208-2.411-4.783-5.776c-0.383-2.243-3.233-4.346-6.42-5.495c-0.461-2.449-1.044-6.818-0.485-11.304  c2.148-0.304,3.807-2.149,3.807-4.378c0-2.441-1.985-4.427-4.427-4.427c-2.441,0-4.427,1.986-4.427,4.427  c0,1.972,1.297,3.646,3.083,4.217c-0.515,4.194-0.104,8.209,0.336,10.857c-1.876-0.402-3.708-0.42-5.084,0.101  c-1.112-2.003-2.547-5.314-2.97-9.54c1.634-0.479,2.832-1.988,2.832-3.775c0-2.17-1.765-3.935-3.936-3.935  c-2.17,0-3.935,1.765-3.935,3.935c0,1.871,1.313,3.438,3.064,3.835c0.446,4.783,2.078,8.451,3.322,10.629  c-1.322,1.705-1,4.952,2.615,10.373C25.053,83.272,58.01,86.442,83.915,78.408C107.714,71.027,91.453,63.372,71.744,64.717z   M15.889,38.866c0-1.357,1.103-2.46,2.459-2.46c1.356,0,2.459,1.103,2.459,2.46c0,1.356-1.103,2.459-2.459,2.459  C16.992,41.325,15.889,40.222,15.889,38.866z M6.214,40.726c0-1.084,0.883-1.967,1.968-1.967s1.967,0.883,1.967,1.967  c0,1.085-0.882,1.969-1.967,1.969S6.214,41.812,6.214,40.726z M32.326,40.067c3.065-8.004,9.063-14.334,16.889-17.827  c6.196-2.765,13.099-2.952,19.437-0.525c6.337,2.426,11.35,7.175,14.114,13.373c4.51,10.102-0.043,21.987-10.144,26.495  c-2.475,1.104-5.131,1.546-7.758,1.321c-0.075-0.014-0.149-0.02-0.227-0.021c-1.384-0.139-2.76-0.463-4.095-0.975  c-3.937-1.508-7.053-4.458-8.771-8.31c-1.346-3.017-1.438-6.376-0.257-9.462c1.182-3.085,3.494-5.525,6.511-6.872  c2.349-1.048,4.966-1.118,7.369-0.199c2.403,0.92,4.302,2.721,5.351,5.07c1.672,3.748-0.016,8.157-3.764,9.83  c-0.661,0.295-0.959,1.07-0.663,1.731c0.296,0.662,1.072,0.959,1.732,0.664c5.068-2.263,7.353-8.226,5.089-13.294  c-1.333-2.989-3.751-5.28-6.808-6.451c-3.057-1.169-6.386-1.08-9.376,0.254c-3.656,1.632-6.459,4.589-7.891,8.328  c-1.432,3.74-1.321,7.813,0.311,11.47c2.004,4.49,5.637,7.933,10.229,9.69c0.534,0.205,1.075,0.384,1.62,0.537  c-9.998,5.319-25.481,0.269-28.456-0.786C29.489,56.414,29.328,47.898,32.326,40.067z"></path></svg>