<svg fill="#00CED1" xmlns="http://www.w3.org/2000/svg" xmlns:xlink="http://www.w3.org/1999/xlink" version="1.1" viewBox="0 0 96 96" x="0px" y="0px"><path d="M45.648 62.5l11.288-11.040h-21.704z" fill="#00CED1"></path><path d="M32 37.46c0 1.105-0.895 2-2 2s-2-0.895-2-2c0-1.105 0.895-2 2-2s2 0.895 2 2z" fill="#00CED1"></path><path d="M96 26.372c0-5.956-5.532-10.8-12.336-10.8-3.032 0-5.916 0.984-8.16 2.74-7.24-5.548-16.924-8.584-27.504-8.584s-20.268 3.036-27.508 8.584c-2.244-1.756-5.128-2.74-8.16-2.74-6.8 0-12.332 4.844-12.332 10.8 0 4.672 3.484 8.748 8.412 10.2-0.748 2.928-1.12 6-1.12 9.16 0 22.352 18.26 40.54 40.712 40.54 22.456 0 40.712-18.188 40.712-40.54 0-3.16-0.384-6.232-1.116-9.16 4.916-1.452 8.4-5.528 8.4-10.2zM24 37.46c0-3.308 2.692-6 6-6s6 2.692 6 6-2.692 6-6 6-6-2.692-6-6zM63.244 50.892l-15.16 14.82v9.752c0 1.104-0.896 2-2 2s-2-0.896-2-2v-8.784l-14.944-15.836c-0.548-0.584-0.696-1.428-0.38-2.168 0.316-0.732 1.036-1.208 1.836-1.208h31.248c0.816 0 1.548 0.492 1.852 1.248 0.304 0.744 0.128 1.604-0.452 2.176zM62 43.46c-3.308 0-6-2.692-6-6s2.692-6 6-6 6 2.692 6 6-2.688 6-6 6z" fill="#00CED1"></path><path d="M64 37.46c0 1.105-0.895 2-2 2s-2-0.895-2-2c0-1.105 0.895-2 2-2s2 0.895 2 2z" fill="#00CED1"></path></svg>