<svg fill="#FFA500" xmlns="http://www.w3.org/2000/svg" xmlns:xlink="http://www.w3.org/1999/xlink" version="1.1" x="0px" y="0px" viewBox="0 0 24 24" enable-background="new 0 0 24 24" xml:space="preserve"><path d="M22,16.7c-0.1-0.5-0.4-0.9-0.7-1.2c-0.6-0.8-1.2-1.7-1.1-2.6c0-0.3,0.1-0.6,0.1-0.9c0-0.4-0.2-0.8-0.6-1.1  c0-0.2-0.1-0.4-0.2-0.6c-0.2-0.8-0.6-1.9-1.3-3.1c-0.7-1.2-1.7-2.5-3.2-3.5c-0.7-0.5-1.6-0.9-2.5-1.2C11.7,2.2,10.8,2,9.8,2  C9,2,8,2,7.2,2.2C6.3,2.4,5.4,2.6,4.7,3.1c-0.8,0.4-1.4,1-1.8,1.7c-0.4,0.7-0.7,1.4-0.7,2C2,8.1,2.3,9.2,2.6,9.9  c0.2,0.3,0.3,0.6,0.5,0.8c0.1,0.2,0.2,0.2,0.2,0.2l0.1-0.1c0,0-0.3-0.3-0.6-1c-0.3-0.7-0.5-1.7-0.2-3C2.7,6.3,3,5.7,3.4,5.1  c0.4-0.5,1-1,1.7-1.3c0.7-0.3,1.4-0.5,2.2-0.6c0.8-0.1,1.6-0.1,2.5,0c0.8,0.1,1.6,0.3,2.3,0.6C12.8,4.1,13.4,4.5,14,5  c1.1,0.9,1.9,2.1,2.4,3.1c0.3,0.7,0.5,1.4,0.7,2c-0.1,0-0.2,0-0.3,0c-0.6,0-1.3-0.1-1.9,0.1c-1.2,0.4-1.8,1.6-2.9,2.3  C11.2,13,10.1,13,9.1,13c-1,0-2-0.1-3,0.2c-0.4,0.1-0.9,0.3-1.3,0.5C3.9,14,3,14.3,2,14.4V22h11.8l0.3-1.3l0.1-0.2  c0-0.1,0-0.2,0.1-0.3c0-0.1,0.1-0.1,0.2-0.2c0.5-0.4,0.9-1,1.1-1.7c0.1-0.3,0.1-0.7,0.3-1c0.1-0.3,0.4-0.6,0.7-0.7  c0.4-0.1,0.8,0.1,1.1,0.3c0.3,0.2,0.5,0.5,0.9,0.8c0.5,0.3,1,0.5,1.6,0.6c0.3,0.1,0.6,0.1,0.9,0.2c0-0.1,0-0.2,0-0.3  c-0.4-0.2-0.7-0.6-0.8-1c0.5,0.4,1,0.8,1.6,0.7c0.1,0,0.1,0,0.1-0.1c0,0,0-0.1,0-0.1C22,17.4,22,17.1,22,16.7z M16.3,13.2  c-0.3,0.5-0.9,0.7-1.5,0.8c-0.6,0-1.2-0.2-1.7-0.4c0.5,0,0.9-0.3,1.3-0.5c0.2-0.1,0.3-0.2,0.4-0.4c0.3-0.3,0.4-0.8,0.8-0.9l0,0.1  c0.2,0.2,0.5,0.4,0.6,0.7c0.1,0.1,0.1,0.2,0.1,0.3C16.4,12.9,16.4,13,16.3,13.2z M19.1,14c0,0-0.1,0-0.1-0.1c0,0-0.1-0.1-0.1-0.1  c-0.1-0.1-0.2,0-0.4,0c-0.1,0-0.1,0-0.2,0c-0.2-0.1-0.4-0.2-0.5-0.4c0,0,0-0.1,0-0.1c0,0,0.1-0.1,0.1-0.1l0,0c0.3,0,0.5,0,0.8,0  c0,0,0.1,0,0.1,0c0.1,0,0.1-0.1,0.2-0.1c0,0,0.1,0.1,0.1,0.1c0,0,0,0.1,0,0.1c0,0.1,0.1,0.3,0.2,0.4c0,0,0.1,0.1,0.1,0.1  C19.1,13.9,19.1,14,19.1,14z M21.6,17.2c0,0,0,0.1-0.1,0.1c0,0,0,0-0.1,0c-0.1,0-0.3,0-0.4-0.1c-0.1,0-0.1-0.1-0.1-0.2  c0,0,0-0.1-0.1-0.1c0,0,0-0.1,0-0.1c0-0.1,0-0.2,0-0.2c0.1-0.2,0.2,0,0.2,0c0,0.1,0,0.1,0.1,0.2c0.1,0,0.1,0.1,0.2,0.1  c0.1,0,0.2,0.1,0.2,0.2C21.6,17.1,21.6,17.1,21.6,17.2z"></path></svg>