<svg fill="#FA8072" xmlns="http://www.w3.org/2000/svg" xmlns:xlink="http://www.w3.org/1999/xlink" version="1.1" x="0px" y="0px" viewBox="0 0 100 100" enable-background="new 0 0 100 100" xml:space="preserve"><path fill="#FA8072" d="M11.122,65.776c0.489,0.326,0.938,0.483,1.371,0.483c0.597,0,1.856-0.356,3.61-2.705l0.384-0.559  c1.083-1.572,2.126-3.559,3.123-5.831c1.777-4.07,3.797-9.938,5.981-18.393c2.199-8.518,3.888-17.108,4.894-22.659  c0,0-0.217-3.295-3.257-2.317C10.459,19.206,5.407,31.418,3.9,38.729C1.41,50.801,5.71,62.168,11.122,65.776z"></path><path fill="#FA8072" d="M97.544,38.773c-1.514-7.341-6.599-19.667-23.536-25.046c-0.06-0.019-0.118-0.039-0.176-0.055  c-0.074-0.023-0.151-0.044-0.224-0.067c-2.802-0.686-2.743,1.965-2.742,1.982c2.052,11.383,7.296,37.354,13.992,47.271l0.529,0.784  l-0.027,0.082c1.745,2.345,2.997,2.715,3.592,2.715h0.001c0.431,0,0.879-0.247,1.369-0.574  C95.733,62.258,100.034,50.846,97.544,38.773z"></path><path fill="#FA8072" d="M56.986,68.207c0.092-0.092,0.171-0.176,0.242-0.256c0.534-0.689-0.219-1.085-0.336-1.141  c-1.34-0.478-3.826-0.846-6.142-0.846c-2.89,0-4.553,0.256-5.499,0.511c-0.049,0.017-0.108,0.034-0.183,0.053  c-0.087,0.024-0.168,0.051-0.241,0.076c-0.737,0.309-0.208,1.03-0.178,1.07c0.922,1.121,2.999,2.777,5.329,4.236  c0.314,0.164,1.003,0.392,1.867-0.112c2.641-1.505,4.101-2.612,4.912-3.372C56.819,68.361,56.893,68.291,56.986,68.207z"></path><path fill="#FA8072" d="M34.465,14.775c0,0,0,0,0,0.001c-1.095,7.205-4.053,22.338-8.083,34.882  c-2.238,7.002-4.26,11.646-6.187,14.706c4.998,13.758,14.098,16.683,20.922,16.683c2.205,0,4.169-0.301,5.686-0.636  c0.123-0.056,1.902-0.877,1.902-2.243v-2.538c-3.93-2.294-9.205-6.122-8.281-9.721c0.86-3.347,5.967-3.776,10.32-3.776  c2.927,0,9.821,0.407,10.755,4.182c0.701,2.838-1.995,5.699-8.96,9.478v2.582c0,0,0.121,1.618,1.509,1.938  c1.563,0.369,3.693,0.729,6.105,0.729c6.851,0,15.97-2.941,20.963-16.758c-2.69-4.38-5.72-11.849-8.982-24.49  c-2.558-9.902-4.436-19.907-5.363-25.242c-0.428-2.396-2.624-3.582-3.169-3.844c-4.077-1.429-8.583-2.209-13-2.209  c-2.962,0-7.078,0.33-11.482,1.641C38.76,10.28,35.013,11.79,34.465,14.775z M61.383,39.002c3.163,0,5.816,2.056,6.563,5.059  c0.003,0.208-0.049,1.565-1.714,1.565c-1.574,0-2.129-0.831-2.244-1.043c-0.007-0.013-0.014-0.025-0.02-0.038  c-0.004-0.006-0.006-0.011-0.006-0.011l0,0c-0.477-0.872-1.383-1.702-2.482-1.702c-1.036,0-1.82,0.738-2.369,1.554v-0.001  c0,0-0.813,1.241-2.548,1.241c-1.601,0-1.738-1.378-1.735-1.593C55.584,41.045,58.231,39.002,61.383,39.002z M46.038,44.061  c0.002,0.208-0.049,1.565-1.714,1.565c-1.574,0-2.128-0.831-2.244-1.043c-0.007-0.013-0.013-0.025-0.02-0.038  c-0.002-0.006-0.004-0.011-0.004-0.011l0,0c-0.477-0.872-1.383-1.702-2.483-1.702c-1.037,0-1.821,0.738-2.369,1.554v-0.001  c0,0-0.814,1.241-2.549,1.241c-1.6,0-1.737-1.378-1.734-1.593c0.756-2.988,3.403-5.031,6.555-5.031  C42.638,39.002,45.291,41.058,46.038,44.061z"></path><path fill="#FA8072" d="M34.926,85.555c3.977,2.871,9.164,5.072,15.741,5.072c6.723,0,12.011-2.356,16.034-5.372  c2.164-1.739-0.369-1.098-0.369-1.098l-0.015-0.002c-2.137,0.515-4.227,0.717-6.164,0.717c-4.439,0-8.031-1.04-9.512-1.544  c-1.48,0.507-5.078,1.551-9.525,1.551c-1.853,0-3.848-0.187-5.889-0.654l0.018,0.012C35.245,84.236,32.656,83.808,34.926,85.555z"></path></svg>