<svg fill="#000080" xmlns="http://www.w3.org/2000/svg" xmlns:xlink="http://www.w3.org/1999/xlink" version="1.1" x="0px" y="0px" viewBox="0 0 30 30" xml:space="preserve"><g transform="translate(-150 -200)"><path xmlns="http://www.w3.org/2000/svg" xmlns:xlink="http://www.w3.org/1999/xlink" style="opacity:0.9;" d="M178.044,218.791c-1.957,1.957-4.316,1.842-5.787,1.494   c0.148-0.424,0.273-0.844,0.375-1.252c0.166,0.01,0.329,0.025,0.507,0.025c1.954,0,4.464-0.75,5.821-4.145   c0.115-0.287-0.025-0.613-0.313-0.727c-0.285-0.115-0.613,0.023-0.728,0.311c-1.196,2.99-3.422,3.521-5.067,3.449   c0.053-0.32,0.094-0.629,0.116-0.914c0.999-0.25,6.406-3.881,6.031-9.033c-0.226-3.107-3.188-6.281-6.754-5.246   c0.316,0.162,3.486,1.551,2.688,6.205c0,0-3.283-1.281-3.663-3.959c0,0-2.895,3.959,2.92,8.33c0,0-2.048,1.932-5.144-0.209   c-0.22-0.209-0.448-0.402-0.686-0.58V211h-1.12v0.869c-0.702-0.328-1.454,0.211-2.24,0.211s-1.538-0.539-2.239-0.211V211h-1.12   v1.541c-0.239,0.178-0.468,0.371-0.688,0.58c-3.095,2.141-5.143,0.209-5.143,0.209c5.814-4.371,2.919-8.33,2.919-8.33   c-0.38,2.678-3.662,3.959-3.662,3.959c-0.8-4.654,2.37-6.043,2.686-6.205c-3.566-1.035-6.527,2.139-6.754,5.246   c-0.375,5.152,5.032,8.783,6.031,9.033c0.023,0.285,0.064,0.594,0.116,0.914c-1.645,0.072-3.871-0.459-5.067-3.449   c-0.114-0.287-0.442-0.426-0.728-0.311c-0.287,0.113-0.427,0.439-0.313,0.727c1.357,3.395,3.868,4.145,5.821,4.145   c0.178,0,0.341-0.016,0.507-0.025c0.102,0.408,0.228,0.828,0.375,1.252c-1.471,0.348-3.83,0.463-5.787-1.494   c-0.219-0.219-0.573-0.219-0.792,0c-0.219,0.219-0.219,0.572,0,0.791c1.559,1.559,3.349,2.004,4.881,2.004   c0.802,0,1.518-0.125,2.108-0.271c0.082,0.184,0.166,0.365,0.258,0.545c-1.938,0.879-4.051,2.455-4.051,5.168   c0,0.309,0.251,0.559,0.559,0.559c0.31,0,0.561-0.25,0.561-0.559c0-2.129,1.794-3.42,3.46-4.166   c0.111,0.182,0.244,0.35,0.394,0.506c0.102,0.137,0.211,0.27,0.32,0.4c-0.773,0.387-1.544,0.961-1.801,1.807   c-0.279,0.926,0.107,1.926,1.15,2.969c0.109,0.109,0.253,0.164,0.396,0.164c0.144,0,0.286-0.055,0.396-0.164   c0.219-0.219,0.219-0.574,0-0.793c-0.729-0.729-1.021-1.352-0.87-1.85c0.167-0.557,0.86-0.984,1.542-1.273   c1.157,1.037,2.646,1.727,4.532,1.727c1.886,0,3.375-0.689,4.533-1.727c0.682,0.289,1.374,0.717,1.541,1.273   c0.151,0.498-0.142,1.121-0.87,1.85c-0.219,0.219-0.219,0.574,0,0.793c0.109,0.109,0.253,0.164,0.395,0.164   c0.144,0,0.287-0.055,0.396-0.164c1.044-1.043,1.431-2.043,1.15-2.969c-0.257-0.846-1.028-1.42-1.801-1.807   c0.109-0.131,0.219-0.264,0.32-0.4c0.149-0.156,0.283-0.324,0.394-0.506c1.667,0.746,3.46,2.037,3.46,4.166   c0,0.309,0.251,0.559,0.561,0.559c0.31,0,0.56-0.25,0.56-0.559c0-2.713-2.113-4.289-4.051-5.168   c0.092-0.18,0.177-0.361,0.258-0.545c0.591,0.146,1.307,0.271,2.108,0.271c1.533,0,3.322-0.445,4.881-2.004   c0.219-0.219,0.219-0.572,0-0.791C178.617,218.572,178.263,218.572,178.044,218.791z"></path></g></svg>