<svg fill="#800080" xmlns="http://www.w3.org/2000/svg" xmlns:xlink="http://www.w3.org/1999/xlink" version="1.1" x="0px" y="0px" viewBox="0 0 96 96" enable-background="new 0 0 96 96" xml:space="preserve"><path d="M43.064,95.092c0.58,0.32,1.168,0.576,1.752,0.852H30.992c-0.776,0-1.488-0.447-1.816-1.155  c-0.328-0.704-0.216-1.54,0.284-2.132l4.264-5.068C36.444,90.641,39.54,93.148,43.064,95.092z M88.328,93.943  c0,1.117-0.904,1.969-2.04,2c-0.009,0-0.024,0-0.04,0h-19.74c-0.02,0.009-1.096,0.113-2.792,0.113  c-3.952,0-11.651-0.584-18.732-4.477C26.892,81.616,20.532,55.1,24.968,8.132c0.04-0.42,0.212-0.824,0.492-1.14  c0.252-0.284,6.252-6.956,14.24-7.052c3.52,0,7.54,1.848,10.852,4.94c6.492,6.06,12.636,30.396,19.416,59.204  c2.296,9.752,4.673,19.828,5.753,21.956c3.135,1.364,9.747,5.144,11.231,6C87.756,92.313,88.328,93.064,88.328,93.943z   M35.14,16.088c0-0.528-0.212-1.044-0.584-1.412c-0.748-0.748-2.084-0.748-2.832,0c-0.372,0.368-0.584,0.884-0.584,1.412  c0,0.516,0.212,1.028,0.588,1.424c0.376,0.368,0.892,0.576,1.416,0.576c0.516,0,1.028-0.208,1.416-0.592  C34.928,17.116,35.14,16.608,35.14,16.088z M58.184,45.968c-0.119-1.1-1.111-1.9-2.207-1.764c-1.093,0.12-1.893,1.108-1.765,2.208  c0.62,5.596-1,23.66-1.731,31.172c-4.037-5.248-8.493-22.477-10.772-38.256c-0.16-1.092-1.192-1.848-2.264-1.692  c-1.092,0.156-1.852,1.172-1.692,2.264c1.404,9.684,6.692,41.417,16.016,43.188c0.125,0.023,0.252,0.032,0.373,0.032  c0.424,0,0.844-0.136,1.191-0.392c0.443-0.336,0.744-0.836,0.796-1.4C56.244,80.195,59.023,53.484,58.184,45.968L58.184,45.968z   M7.712,23.868c0.156,0.8,0.78,1.416,1.576,1.572l10.472,2.068c0.124-4.332,0.368-8.872,0.732-13.628L8.568,21.816  C7.892,22.268,7.552,23.08,7.712,23.868z"></path></svg>