<svg fill="#008080" xmlns="http://www.w3.org/2000/svg" xmlns:xlink="http://www.w3.org/1999/xlink" version="1.1" x="0px" y="0px" viewBox="0 0 96 96" enable-background="new 0 0 96 96" xml:space="preserve"><path d="M92.252,57.532c-5.124-0.968-10.132-1.584-15.012-1.937c1.568-15.572,0.611-32.244-7.992-41.684  C62.048,6,56.32,2.16,51.744,2.16c-2.044,0-3.556,0.78-4.668,1.796c-0.224-0.032-0.452-0.044-0.684,0.004  c-0.328,0.068-3.3,0.756-7.364,4.076c-1.748,1.428-2.752,3.336-2.9,5.516c-0.376,5.56,4.78,11.264,5.368,11.896  c0.388,0.416,0.92,0.632,1.464,0.632c0.256,0,0.516-0.048,0.76-0.148c0.768-0.316,1.264-1.08,1.24-1.916  c-0.072-2.34,0.256-4.992,0.708-6.02c0.084,0.048,0.172,0.052,0.256,0.084c1.62,1.66,4.072,2.576,7.256,2.576  c0.164,0,0.328,0,0.484-0.004l4.313,30.212c0.131,0.907,0.859,1.6,1.764,1.704l7.472,0.8l-0.084,1.86  C30.284,55.268,3.464,69.904,3.144,70.084c-0.964,0.536-1.312,1.752-0.772,2.721c0.364,0.655,1.048,1.031,1.748,1.031  c0.332,0,0.664-0.084,0.972-0.252c0.316-0.172,26.232-14.252,61.86-14.336l-1.392,32.504c-0.049,1,0.655,1.876,1.64,2.057  c0.116,0.023,0.243,0.031,0.36,0.031c0.848,0,1.623-0.544,1.899-1.38c0.392-1.185,5.132-15.896,7.312-32.836  c4.789,0.34,9.688,0.896,14.729,1.844c1.092,0.208,2.132-0.508,2.336-1.588C94.048,58.78,93.336,57.744,92.252,57.532z   M55.376,12.664c-0.372,0.376-0.884,0.588-1.416,0.588c-0.524,0-1.044-0.212-1.416-0.588c-0.372-0.368-0.584-0.884-0.584-1.408  c0-0.524,0.22-1.04,0.584-1.416c0.752-0.748,2.084-0.748,2.828,0c0.372,0.376,0.584,0.892,0.584,1.416  C55.96,11.784,55.748,12.296,55.376,12.664L55.376,12.664z M68.372,44.876c-0.14,0.024-0.276,0.04-0.412,0.04  c-0.928,0-1.76-0.648-1.956-1.592l-3.332-16c-0.229-1.084,0.473-2.14,1.557-2.368c1.08-0.228,2.14,0.472,2.359,1.548l3.336,16  C70.141,43.588,69.452,44.652,68.372,44.876L68.372,44.876z"></path></svg>