<svg fill="#556B2F" xmlns="http://www.w3.org/2000/svg" xmlns:xlink="http://www.w3.org/1999/xlink" version="1.1" viewBox="0 0 96 96" x="0px" y="0px"><path d="M8.724 24.080l-6.504 2.004c-0.132 0.028-0.292 0.040-0.424 0.040-0.608 0-1.244-0.276-1.628-0.768-0.468-0.596-0.66-1.408-0.332-2.092l2.848-6.416c0.52 1.624 4.748 6.264 6.040 7.232zM96.204 42.372c-0.648 3.204-3.556 5.82-7.604 7.060 1.152 1.888 1.488 3.752 0.972 5.512-0.96 3.292-4.7 5.616-11.42 7.092 0.076 0.552 0.104 1.088 0.104 1.624 0 9.844-10.68 17.1-25.696 17.764v10.568c1.104 0 2 0.896 2 2s-0.896 2-2 2h-4c-1.104 0-2-0.896-2-2s0.896-2 2-2v-10.584c-12.756-0.424-22.54-5.384-25.36-13.008-9.312-6.892-8.796-14.948-7.88-29.364 0.612-9.716-0.796-13.428-1.64-15.644-0.056-0.152-0.108-0.296-0.164-0.436-4.348-1.896-7.204-6.18-7.204-10.956 0-6.616 5.384-12 12-12s12 5.384 12 12c0 1.048 0.38 2.764 0.484 3.132 1.372 4.86 6.496 21.116 15.696 29.564 5.284-0.504 9.784-0.036 14.268 1.2 1.452-1.036 2.884-2.076 4.272-3.096 7.728-5.652 14.4-10.532 20.656-10.532 1.828 0 3.56 0.432 5.132 1.288 5.824 3.156 5.704 7.216 5.384 8.816zM70.252 55.664c0-1.1-0.9-2-2-2-1.104 0-2 0.9-2 2 0 7.892-10.296 13.832-23.952 13.832-1.104 0-2 0.896-2 2s0.896 2 2 2c16.192 0 27.952-7.5 27.952-17.832z" fill="#556B2F"></path></svg>