<svg fill="#2E8B57" xmlns="http://www.w3.org/2000/svg" xmlns:xlink="http://www.w3.org/1999/xlink" version="1.1" x="0px" y="0px" viewBox="0 0 96 96" enable-background="new 0 0 96 96" xml:space="preserve"><path d="M47.98,34.956c8.456,0,15.984-10.192,15.984-18.228c0-8.044-8.692-9.732-15.984-9.732C40.688,6.996,32,8.684,32,16.728  C32,24.764,39.52,34.956,47.98,34.956z M52.637,19.512l4-3.728c0.807-0.752,2.075-0.708,2.827,0.1  c0.752,0.812,0.708,2.076-0.096,2.828l-4,3.728c-0.384,0.36-0.876,0.536-1.368,0.536c-0.536,0-1.068-0.212-1.46-0.636  C51.779,21.532,51.828,20.268,52.637,19.512z M36.536,15.884c0.752-0.808,2.02-0.852,2.828-0.1l4,3.728  c0.808,0.756,0.852,2.02,0.1,2.828c-0.396,0.424-0.928,0.636-1.464,0.636c-0.488,0-0.98-0.176-1.364-0.536l-4-3.728  C35.832,17.956,35.78,16.692,36.536,15.884z"></path><path d="M69.412,13.44c-0.708-0.204-1.385-0.404-2.053-0.604c0.356,1.208,0.597,2.48,0.597,3.892c0,9.348-8.044,20.62-17.876,22.068  v4.752c2.416,0.86,4.168,3.156,4.168,5.864c0,1.107-0.893,2-2,2c-1.1,0-2-0.896-2-2c0-1.24-1.008-2.252-2.248-2.252  s-2.252,1.012-2.252,2.252c0,1.107-0.896,2-2,2s-2-0.896-2-2c0-2.772,1.828-5.1,4.332-5.92v-4.668C36.16,37.508,28,26.144,28,16.732  c0-1.256,0.18-2.416,0.464-3.512L26.6,13.624C17.6,16.228,4,20.076,4,37.092c0,12.92,10.568,26.721,19.06,37.832  C27.456,80.68,32,86.584,32,89.008h32c0-2.42,4.544-8.376,8.939-14.124C81.432,63.764,92,49.939,92,37.004  C92,19.992,78.408,16.052,69.412,13.44z"></path></svg>