<svg fill="#ADFF2F" xmlns="http://www.w3.org/2000/svg" xmlns:xlink="http://www.w3.org/1999/xlink" version="1.1" viewBox="0 0 96 96" x="0px" y="0px"><path d="M75.58 13.14c0 1.189-0.895 2.152-2 2.152s-2-0.963-2-2.152c0-1.189 0.895-2.152 2-2.152s2 0.963 2 2.152z" fill="#ADFF2F"></path><path d="M92.58 5.92c-6.612-3.424-12.484-5.092-17.928-5.092-17.964 0-26.428 18.188-34.612 35.776-7.856 16.888-15.28 32.84-30.096 32.84v0c-1.644 0-3.392-0.196-5.184-0.588-1.008-0.216-2.004 0.356-2.324 1.328-0.324 0.972 0.144 2.032 1.080 2.448 10.708 4.82 21.94 7.888 32.404 8.956v11.584c0 1.108 0.896 2 2 2s2-0.892 2-2v-11.252c1.332 0.076 4-0.304 4-0.304v-0.44c0 0-0.012 0 0 0v12c0 1.108 0.896 2 2 2s2-0.892 2-2v-11.284c12.768-0.784 22.56-5.268 27.74-12.904 7.432-10.952 8.196-24.616 8.868-36.676 0.732-13.012 1.492-21.076 7.648-22.672 0.804-0.208 1.396-0.892 1.484-1.712 0.084-0.836-0.344-1.628-1.080-2.008zM73.58 6.992c3.304 0 6 2.76 6 6.152s-2.696 6.152-6 6.152c-3.312 0-6-2.756-6-6.152 0-3.392 2.684-6.152 6-6.152zM80.52 32.084c-0.052 0.86-0.096 1.74-0.156 2.612-4.768-1.48-10-0.952-14.768 1.536-6.188 3.232-11.024 9.352-13.268 16.796-2.52 8.34-1.344 17.324 2.984 23.832-1.38 0.3-2.812 0.54-4.304 0.728-4.252-7.368-5.224-16.732-2.508-25.712 2.56-8.468 8.112-15.46 15.252-19.18 5.4-2.824 11.328-3.528 16.86-2.080-0.032 0.488-0.064 0.968-0.092 1.468z" fill="#ADFF2F"></path></svg>