<svg fill="#FF69B4" xmlns="http://www.w3.org/2000/svg" xmlns:xlink="http://www.w3.org/1999/xlink" version="1.1" x="0px" y="0px" viewBox="0 0 144.083 144" enable-background="new 0 0 144.083 144" xml:space="preserve"><path d="M117.914,23.414c-8.325-3.144-17.349-0.919-23.305,4.935c-5.779-5.221-13.432-8.405-21.814-8.405  c-8.772,0-16.739,3.492-22.601,9.149c-5.93-6.405-15.355-8.952-24.024-5.679C14.746,27.727,8.984,40.482,13.295,51.902l4.365,11.562  c3.816,10.104,14.242,15.773,24.503,13.96c-1.302,4.476-4.691,12.417-8.749,13.633c-1.176,0.354-2.019,1.387-2.126,2.609  c-0.108,1.223,0.54,2.389,1.636,2.941c2.233,1.129,4.564,1.699,6.931,1.699c0.001,0,0,0,0.002,0c6.186,0,11.316-3.892,14.586-7.237  c1.066,1.037,2.117,1.981,3.114,2.792c0.67,8.322,9.014,24.354,25.891,26.764c1.229,2.074,3.488,3.432,6.005,3.432  c3.847,0,6.977-3.129,6.977-6.977v-9.088c0-3.848-3.13-6.979-6.977-6.979c-1.088,0-2.146,0.262-3.096,0.736  c-0.164-1.193-0.24-3.229,0.031-6.676c1.309-1.055,2.9-2.506,4.584-4.188c3.26,3.385,8.464,7.42,14.766,7.42  c2.364,0,4.696-0.57,6.93-1.699c1.097-0.553,1.745-1.719,1.637-2.941s-0.95-2.258-2.127-2.609c-3.88-1.164-7.219-8.418-8.69-13.431  c9.738,1.006,19.313-4.571,22.935-14.162l4.365-11.562C135.099,40.482,129.337,27.727,117.914,23.414z M41.548,92.146  c2.497-3.057,4.239-6.914,5.324-9.861c1.077,1.497,2.25,2.975,3.46,4.388C48.195,88.909,45.069,91.486,41.548,92.146z   M81.766,91.061l-1.111,0.795l-0.128,1.361c-0.537,5.705-0.688,11.363,1.831,14.131c0.962,1.057,2.269,1.639,3.677,1.639h1.716  l0.87-1.479c0.068-0.115,0.329-0.494,0.832-0.494c0.538,0,0.977,0.439,0.977,0.979v9.088c0,0.539-0.438,0.977-0.977,0.977  c-0.526,0-0.88-0.396-0.956-0.789l-0.437-2.234l-2.269-0.182c-16.229-1.297-22.527-18.111-22.271-22.299l0.101-1.631l-1.315-0.969  c-4.828-3.557-12.019-11.908-14.416-17.767c-1.293-3.155-1.708-13.728-1.666-19.672c0-14.651,11.919-26.571,26.57-26.571  c14.653,0,26.574,11.92,26.574,26.593c0.041,5.921-0.375,16.492-1.667,19.651C95.165,78.385,85.847,88.135,81.766,91.061z   M95.073,86.498c1.246-1.428,2.459-2.912,3.577-4.406c1.08,2.972,2.841,6.931,5.396,10.057  C100.402,91.475,97.204,88.775,95.073,86.498z"></path><circle cx="55.785" cy="62.919" r="5.08"></circle><circle cx="89.806" cy="62.919" r="5.08"></circle></svg>