<svg fill="#008B8B" xmlns="http://www.w3.org/2000/svg" xmlns:xlink="http://www.w3.org/1999/xlink" version="1.1" viewBox="0 0 96 96" x="0px" y="0px"><path d="M78.228 61.708c-4.808 6.76-15.024 6.292-21.844 6.292h-16.56c-6.72 0-16.74-0.028-21.624-6.736-9.196 8.344-14.564 20.196-14.564 32.736 0 1.1 0.896 2 2 2 0.112 0 0.212-0.048 0.32-0.064v0.064l84-0.084c0.136 0.028 0.264 0.084 0.404 0.084 1.104 0 2-0.9 2-2 0-12.344-5.22-23.976-14.132-32.292z" fill="#008B8B"></path><path d="M47.892 44.816c2.596-0.876 3.924-1.74 4.088-3.612-0.528-0.76-2.172-1.308-4.044-1.308-2.22 0-3.78 0.716-4.22 1.308 0.136 1.908 1.276 2.532 4.176 3.612z" fill="#008B8B"></path><path d="M64.256 22.416c0 1.151-0.933 2.084-2.084 2.084s-2.084-0.933-2.084-2.084c0-1.151 0.933-2.084 2.084-2.084s2.084 0.933 2.084 2.084z" fill="#008B8B"></path><path d="M35.644 22.416c0 1.151-0.933 2.084-2.084 2.084s-2.084-0.933-2.084-2.084c0-1.151 0.933-2.084 2.084-2.084s2.084 0.933 2.084 2.084z" fill="#008B8B"></path><path d="M21.812 37.548l-1.712-1.28c-0.884-0.66-1.064-1.912-0.404-2.8 0.664-0.884 1.916-1.064 2.8-0.4l2.956 2.216c1.916-0.86 4.004-1.364 6.188-1.364l0.276 0.020c3.984-5.26 9.876-7.46 16.172-7.46 6.364 0 12.324 1.524 16.332 9.524h0.064c1.424 0 2.812 0.188 4.132 0.52l4.612-3.456c0.888-0.664 2.14-0.484 2.8 0.4 0.664 0.888 0.484 2.14-0.4 2.8l-2.684 2.012c2.376 1.388 4.368 3.344 5.756 5.704 1.324-3.596 2.072-7.388 2.072-11.232 0-18.060-14.7-32.752-32.776-32.752-18.072 0-32.78 14.692-32.78 32.752 0 3.656 0.692 7.256 1.896 10.7 1.124-2.312 2.756-4.316 4.7-5.904zM62.172 16.332c3.36 0 6.088 2.732 6.088 6.084 0 3.356-2.732 6.084-6.088 6.084-3.352 0-6.084-2.728-6.084-6.084s2.728-6.084 6.084-6.084zM33.56 16.332c3.356 0 6.088 2.732 6.088 6.084 0 3.356-2.732 6.084-6.088 6.084s-6.084-2.728-6.084-6.084 2.728-6.084 6.084-6.084z" fill="#008B8B"></path><path d="M13.952 56h6.1c2.036 6.556 8.612 8 19.768 8h16.556c11.148 0 17.728-1.444 19.764-8h5.812c1.1 0 2-0.9 2-2s-0.9-2-2-2h-5.132c-0.080 1.4-0.348 2.736-0.796 4h-14.072c-1.1 0-2-0.9-2-2s0.9-2 2-2h14.856c0.016-0.364 0.088-0.664 0.088-1.048 0-4.616-2.576-8.708-6.276-10.932l-11.336 8.496c-0.36 0.268-0.776 0.4-1.196 0.4-0.604 0-1.208-0.272-1.604-0.8-0.656-0.884-0.476-2.136 0.408-2.8l9.204-6.9c-0.516-0.068-1.028-0.164-1.564-0.164l-2.236 0.024c-3.188-5.384-8.528-8.676-14.196-8.676-5.676 0-10.996 3.212-14.156 8.472l-2.3-0.156c-0.796 0-1.572 0.1-2.328 0.256l9.532 7.14c0.884 0.664 1.064 1.916 0.4 2.8-0.392 0.524-0.992 0.8-1.6 0.8-0.416 0-0.836-0.128-1.196-0.4l-11.356-8.508c-3.444 2.348-5.796 6.408-5.796 10.956 0 0.388 0.076 0.672 0.088 1.040h14.564c1.104 0 2 0.896 2 2 0 1.1-0.896 2-2 2h-13.804c-0.448-1.264-0.724-2.6-0.796-4h-5.4c-1.104 0-2 0.896-2 2 0 1.1 0.896 2 2 2zM39.796 40.184c1.012-3.168 5.016-4.288 8.14-4.288 3.988 0 7.032 1.628 7.944 4.24 0.080 0.212 0.112 0.432 0.112 0.66 0 4.672-3.456 6.572-6.048 7.532v4.892c1.456 0.056 2.928 0.080 4.312 0.252 1.092 0.14 1.868 1.148 1.724 2.24-0.14 1.096-1.14 1.876-2.24 1.728-3.764-0.488-8.056-0.464-11.76 0.056-0.096 0.016-0.188 0.024-0.284 0.024-0.98 0-1.836-0.724-1.976-1.728-0.152-1.092 0.608-2.1 1.704-2.256 1.436-0.196 2.992-0.252 4.528-0.312v-4.86c-2.836-1.080-6.252-2.712-6.252-7.564 0-0.216 0.036-0.42 0.096-0.616z" fill="#008B8B"></path></svg>