<svg fill="#A0522D" xmlns="http://www.w3.org/2000/svg" xmlns:xlink="http://www.w3.org/1999/xlink" version="1.1" viewBox="0 0 96 96" x="0px" y="0px"><path d="M95.944 16.704c-0.432-7.244-8.524-10.16-16.088-10.532-0.872-3.052-3.496-5.496-6.248-5.496-2.196 0-4.548 1.632-4.548 6.204 0 1.788 0.080 4.252 0.168 7.072 0.248 7.832 0.832 26.184-1.816 28.488-1.984 2.128-4.78 3.352-7.684 3.352-3.152 0-6.036-1.432-7.956-3.94-2.832-7.684-10.38-12.82-18.892-12.82-7.628 0-14.524 4.2-17.94 10.804-7.668 0.492-14.98 8.88-14.98 17.416 0 12.904 6.684 20.332 19.32 21.768l3.776 15.86c0.040 0.164 0.116 0.304 0.192 0.44h10.036c0.104-0.204 0.18-0.424 0.212-0.668l1.888-15.332h21.464l3.704 15.56c0.040 0.164 0.116 0.304 0.188 0.44h10.040c0.108-0.208 0.184-0.432 0.212-0.684l1.86-16.484c7.328-1.384 12.36-4.016 15.188-7.984 3.228-4.524 3.492-10.488 0.828-18.236-2.812-8.156-4.196-26.416-4.6-32.616h9.692c0.012 0 0.028 0 0.040 0 1.128 0.012 2.040-0.884 2.040-2 0.004-0.208-0.032-0.416-0.096-0.612z" fill="#A0522D"></path></svg>