<svg fill="#6B8E23" xmlns="http://www.w3.org/2000/svg" xmlns:xlink="http://www.w3.org/1999/xlink" version="1.1" viewBox="0 0 96 96" x="0px" y="0px"><path d="M13.9 61.288c0.396 1.372 0.864 2.684 1.344 4h-10.764c-1.104 0-2-0.9-2-2s0.896-2 2-2h9.42zM4.48 53.288c-1.104 0-2 0.9-2 2s0.896 2 2 2h8.404c-0.3-1.316-0.552-2.648-0.78-4h-7.624zM92.48 57.288c1.104 0 2-0.9 2-2s-0.896-2-2-2h-8.604c-0.228 1.352-0.476 2.684-0.776 4h9.38zM92.48 65.288c1.104 0 2-0.9 2-2s-0.896-2-2-2h-10.4c-0.4 1.372-0.868 2.684-1.344 4h11.744zM48.408 63.892c1.468-0.688 5.632-3.436 10.164-6.6h-20.332c4.536 3.16 8.7 5.912 10.168 6.6zM83.092 57.288c-0.304 1.352-0.632 2.692-1.016 4h-13.596c-1.104 0-2 0.9-2 2s0.896 2 2 2h12.252c-2.096 5.78-4.88 11.080-8.456 15.504-6.596 8.176-14.836 12.496-23.816 12.496h-0.944c-8.98 0-17.216-4.32-23.816-12.496-3.576-4.424-6.356-9.732-8.456-15.504h13.236c1.104 0 2-0.9 2-2s-0.896-2-2-2h-14.576c-0.38-1.308-0.712-2.648-1.016-4h11.596c1.104 0 2-0.9 2-2s-0.896-2-2-2h-12.38c-1.528-9.1-1.5-18.904 0.376-28.692-3.196-1.080-6.636-3.432-9.372-6.48-2.812-3.144-3.876-7.916-2.528-11.348 0.908-2.32 2.816-3.772 5.24-4 5.8-0.536 13.512 2.648 16.744 6.788 0.040 0.052 0.080 0.104 0.116 0.152 6.028-2.668 14.912-4.144 25.312-4.188 10.408 0.048 19.292 1.532 25.34 4.22 0.036-0.044 0.076-0.096 0.112-0.144 3.604-4.636 11.6-7.192 16.732-6.724 2.412 0.224 4.32 1.684 5.232 4.008 1.368 3.476 0.304 8.288-2.524 11.444-2.64 2.936-6.084 5.228-9.368 6.284 1.868 9.784 1.9 19.584 0.368 28.672h-11.404c-1.104 0-2 0.9-2 2 0 1.104 0.896 2 2 2l10.612 0.008zM64.48 37.288h-4c-1.104 0-2 0.896-2 2s0.896 2 2 2h4c1.104 0 2-0.896 2-2s-0.896-2-2-2zM54.48 15.288c0 1.104 0.896 2 2 2h4c1.104 0 2-0.896 2-2s-0.896-2-2-2h-4c-1.104 0-2 0.896-2 2zM42.48 23.288c0 1.104 0.896 2 2 2h8c1.104 0 2-0.896 2-2s-0.896-2-2-2h-8c-1.104 0-2 0.896-2 2zM34.48 15.288c0 1.104 0.896 2 2 2h4c1.104 0 2-0.896 2-2s-0.896-2-2-2h-4c-1.104 0-2 0.896-2 2zM30.48 39.288c0 1.104 0.896 2 2 2h4c1.104 0 2-0.896 2-2s-0.896-2-2-2h-4c-1.104 0-2 0.896-2 2zM30.48 23.288c0-1.104-0.896-2-2-2h-4c-1.104 0-2 0.896-2 2s0.896 2 2 2h4c1.104 0 2-0.896 2-2zM66.744 54.672c-0.264-0.828-1.032-1.384-1.904-1.384h-32.868c-0.868 0-1.636 0.556-1.904 1.384s0.028 1.736 0.732 2.244c13.18 9.528 16.2 10.852 17.224 11.040-0.384 0.080-0.752 0.228-1.032 0.508l-4.108 4.116c-0.78 0.78-0.78 2.048 0 2.828 0.392 0.392 0.904 0.584 1.416 0.584s1.024-0.196 1.416-0.584l2.692-2.696 2.692 2.696c0.78 0.784 2.056 0.78 2.828 0 0.78-0.78 0.78-2.048 0.004-2.828l-4.108-4.116c-0.28-0.28-0.648-0.428-1.036-0.508 1.024-0.184 4.044-1.508 17.224-11.040 0.708-0.508 1-1.42 0.732-2.244zM68.48 25.288h4c1.104 0 2-0.896 2-2s-0.896-2-2-2h-4c-1.104 0-2 0.896-2 2s0.896 2 2 2z" fill="#6B8E23"></path></svg>