<svg fill="#32CD32" xmlns="http://www.w3.org/2000/svg" xmlns:xlink="http://www.w3.org/1999/xlink" version="1.1" x="0px" y="0px" viewBox="0 0 24 24" enable-background="new 0 0 24 24" xml:space="preserve"><path d="M22,2.3C21.5,2.1,21,2,20.5,2c-0.4,0-0.8,0.1-1.1,0.2c-0.5,0.2-0.9,0.4-1.3,0.7s-0.7,0.7-1,1.2c-0.1,0.2-0.3,0.5-0.5,0.7  c-0.3,0.3-0.8,0.5-1.2,0.8c-0.3,0.3-0.5,0.8-0.9,1c-0.9-0.2-1.8-0.8-2.2-1.6c-0.1,0.9,0.1,1.8,0.5,2.7C13,8.2,13.1,8,13.1,8.6  c0,0.1-0.6,0.8-0.8,1c-0.3,0.5-0.2,1.2-0.6,1.6c-0.1,0.2-0.4,0.1-0.6,0.2c-0.3,0.2-0.6,0.4-0.9,0.5c-0.9,0.1-1.6-0.2-2.4-0.4  c-0.1,0-0.3-0.1-0.4,0s-0.1,0.1-0.1,0.2c-0.1,0.7,0,1.4,0.4,2l0,0c0,0-5.2-1.5-5.8-3.5c0,0-0.2,6.3,4,8c-0.2,0.5-0.2,1-0.1,1.5  c0.1,0.4,0.3,0.8,0.7,0.9c0.1,0,0.2,0,0.3,0.1c0.1,0,0.2,0.1,0.3,0.2c0.5,0.4,1.1,0.7,1.7,0.9c0.3,0.1,0.5,0.2,0.8,0.3  c0.9,0.2,1.8-0.3,2.6-0.8s1.6-0.9,2.3-1.5c0.3-0.2,0.6-0.5,0.9-0.7c0.2-0.1,0.5-0.2,0.7-0.4c0.1-0.1,0.2-0.3,0.3-0.4  c0.2-0.2,0.5-0.3,0.8-0.4c0.1,0,0.2-0.1,0.3-0.1c0.4,0,0.6,0.4,0.8,0.7c0.3,0.3,0.7,0.6,1.2,0.6s0.9-0.2,1.2-0.6  c0.2,0.4,0.5,0.8,0.9,1h0.1V2.3H22z M8.6,19.3c-0.2,0.1-0.4,0.2-0.5,0.3c-0.2,0.1-0.3,0.1-0.5,0.2c-0.2,0-0.4,0-0.5-0.1  c-0.6-0.6,0.4-0.8,0.4-0.8C8.3,18.8,9,19,9.7,19.2C9.3,19.1,8.9,19.1,8.6,19.3z M12,16c-0.5,0-1-0.4-1-1c0-0.5,0.4-1,1-1  c0.5,0,1,0.4,1,1S12.5,16,12,16z"></path></svg>