<svg fill="#8B0000" xmlns="http://www.w3.org/2000/svg" xmlns:xlink="http://www.w3.org/1999/xlink" version="1.1" viewBox="0 0 96 96" x="0px" y="0px"><path d="M57.64 96.004c-12.96 0-15.908-8.464-18.056-14.64-0.352-1.012-0.692-1.984-1.048-2.856-10.232-0.372-13.108-5.168-15.66-9.42-2.416-4.024-4.5-7.5-13.528-7.5-0.72 0-1.384-0.384-1.74-1.008-0.356-0.628-0.344-1.404 0.024-2.016 3.936-6.568 7.332-9.492 11.008-9.492 2.62 0 4.72 1.548 6.568 2.912 1.552 1.144 3.012 2.228 4.464 2.228 5.944 0 16.428-10.492 25.676-19.744 10.36-10.36 17.452-18.184 25.252-29.892 0.396-0.592 1.076-0.944 1.784-0.888 0.716 0.044 1.344 0.468 1.664 1.104 5.836 11.668 7.048 31.232-1.92 46.056-4.524 7.476-13.344 16.396-29.872 17.424 1.648 5.6 10.604 6.252 14.672 6.252 6.060 0 11.328 4.12 11.752 9.188 0.172 2.14-0.368 9.312-14.812 11.724-2.22 0.38-4.32 0.568-6.228 0.568z" fill="#8B0000"></path><path d="M16.528 45.312c0.684-0.14 1.384-0.24 2.12-0.24 3.94 0 6.832 2.136 8.94 3.696 0.732 0.54 1.828 1.34 2.252 1.452 3.816-0.008 14.024-9.94 21.028-16.924 1.284-9.976-0.752-20.176-3.824-26.56-2.116-4.408-4.608-6.736-7.208-6.736-0.528 0-1.036 0.212-1.416 0.584-1.464 1.464-2.256 3.856-3.364 7.176-1.936 5.82-4.868 14.608-13.568 23.312-5.316 5.316-5.688 10.5-5.064 13.908 0.024 0.12 0.080 0.216 0.104 0.332z" fill="#8B0000"></path></svg>