<svg fill="#1E90FF" xmlns="http://www.w3.org/2000/svg" xmlns:xlink="http://www.w3.org/1999/xlink" version="1.1" viewBox="0 0 96 96" x="0px" y="0px"><path d="M28.972 83.752c-0.568 0-1.124-0.396-1.512-0.844-4.804-5.544-5.964-6.836-10.16-8.28-2.784 0.064-9.536 2.968-14.16 6.204-0.66 0.452-1.52 0.464-2.2 0.040-0.68-0.42-1.044-1.22-0.92-2.008 1.104-7.256 6.796-16.212 16.724-19.148 9.788-18.76 23.58-30.928 30.38-36.164-3.068-4.464-8.532-5.488-11.696-5.684-0.964-0.064-1.748-0.808-1.856-1.764-0.112-0.96 0.476-1.864 1.4-2.152 6.652-2.044 15.24-0.904 22.64 2.808 1.188-0.604 2.272-1.092 3.24-1.452 5.52-2.084 9.748-3.060 13.268-3.060 5.916 0 10.148 2.804 13.24 8.796 5.248 0.532 7.896 1.82 8.524 4.124 0.56 2.012-0.828 3.832-2.304 4.872-0.38 0.264-0.844 0.38-1.308 0.356-5.728-0.452-11.796 0.456-18.416 2.676 0.396 7.016-2.232 18.584-3.82 20.968-0.484 0.736-1.4 1.064-2.244 0.804s-1.42-1.032-1.42-1.916c0-2.82-1.624-5.668-4.712-8.244-1.508-1.26-2.5-2.956-2.876-4.712-14.060 8.004-25.696 18.696-30.924 23.86 1.3 4.764 2.964 12.524 3.108 17.008 0.060 0.188 0.088 0.548 0.088 0.752 0 1.112-0.96 2.152-2.036 2.152-0.024 0.008-0.032 0.008-0.048 0.008z" fill="#1E90FF"></path></svg>