<svg fill="#483D8B" xmlns="http://www.w3.org/2000/svg" xmlns:xlink="http://www.w3.org/1999/xlink" version="1.1" x="0px" y="0px" viewBox="0 0 24 24" enable-background="new 0 0 24 24" xml:space="preserve"><path d="M15.1,16c-1.5,0.2-3,0.1-4.4-0.3c-0.2-0.1-0.5-0.1-0.7-0.2c-0.5-0.2-1-0.5-1.6-0.6c-0.4-0.1-0.8,0-1.2-0.1l0-0.2l10-12.5  L16.9,2l-8.8,9.7l3-9.5l-0.2-0.1L5.4,14.7l-0.2,0.1C5,14.9,4.8,15,4.7,15.1c-0.5,0.4-0.5,1.2-0.6,1.8c-0.2,0.8-0.7,1.5-1.2,2.2  c-0.2,0.3-0.3,0.5-0.5,0.8c-0.1,0.2-0.3,0.4-0.3,0.6C2,20.7,2,21,2.2,21.1c0.1,0.1,0.2,0.1,0.2,0.2c0.2,0.1,0.4,0.2,0.6,0.2  c0.2,0,0.4-0.1,0.5-0.3c-0.1,0.1-0.2,0.3-0.2,0.5c0,0.2,0.2,0.3,0.4,0.3c0.2,0,0.3-0.1,0.4-0.2c0.1-0.1,0.2-0.3,0.3-0.4  c0.4-0.3,0.9-0.2,1.3-0.4c0.4-0.2,0.6-0.5,0.8-0.9c0.5,0.9,1.8,1,2.3,1.9L22,22v-6L15.1,16z M5.5,18C5.3,18,5,17.8,5,17.5  C5,17.2,5.3,17,5.5,17C5.8,17,6,17.2,6,17.5C6,17.8,5.8,18,5.5,18z"></path></svg>