<svg fill="#8B4513" xmlns="http://www.w3.org/2000/svg" xmlns:xlink="http://www.w3.org/1999/xlink" version="1.1" x="0px" y="0px" viewBox="0 0 96 96" enable-background="new 0 0 96 96" xml:space="preserve"><path d="M83.156,21.764c-0.961-1.368-9.641-13.396-18.4-13.396c-0.384,0-0.756,0.024-1.176,0.072C60.111,3.204,54.26,0.004,48,0.004  s-12.112,3.2-15.584,8.436c-0.392-0.044-0.78-0.072-1.176-0.072c-8.756,0-17.44,12.024-18.424,13.436  C3.648,35.532-0.092,45.8-0.092,57.236c0,0.572,0.24,1.107,0.664,1.488c0.42,0.379,0.972,0.567,1.544,0.5  c7.516-0.785,14.176-6.521,18.652-12.521c-0.012,0.58-0.024,1.156-0.036,1.736c-0.32,15.664-0.648,31.848,8.092,40.781  C33.296,93.779,39.568,96,48,96c8.428,0,14.704-2.221,19.172-6.779c8.744-8.921,8.416-25.117,8.092-40.781  c-0.008-0.58-0.023-1.156-0.031-1.736c4.476,6,11.131,11.735,18.647,12.521c0.56,0.06,1.132-0.121,1.552-0.5  c0.42-0.381,0.66-0.916,0.66-1.488C96.084,45.804,92.344,35.536,83.156,21.764z M36.08,44.004v-8c0-1.108,0.896-2,2-2s2,0.892,2,2v8  c0,1.108-0.896,2-2,2S36.08,45.112,36.08,44.004z M57.788,78.691l-8.38,8.369c-0.389,0.392-0.9,0.58-1.408,0.58  s-1.024-0.188-1.412-0.584l-8.38-8.369c-0.784-0.775-0.784-2.043-0.004-2.832c0.78-0.779,2.052-0.779,2.828,0L48,82.813l6.973-6.953  c0.771-0.779,2.047-0.779,2.827,0C58.576,76.648,58.576,77.916,57.788,78.691z M60.08,44.004c0,1.108-0.9,2-2,2s-2-0.892-2-2v-8  c0-1.108,0.9-2,2-2s2,0.892,2,2V44.004z"></path></svg>