<svg fill="#8B008B" xmlns:dc="http://purl.org/dc/elements/1.1/" xmlns:cc="http://creativecommons.org/ns#" xmlns:rdf="http://www.w3.org/1999/02/22-rdf-syntax-ns#" xmlns:svg="http://www.w3.org/2000/svg" xmlns="http://www.w3.org/2000/svg" xmlns:sodipodi="http://sodipodi.sourceforge.net/DTD/sodipodi-0.dtd" xmlns:inkscape="http://www.inkscape.org/namespaces/inkscape" version="1.1" x="0px" y="0px" viewBox="0 0 100 100"><g transform="translate(0,-952.36218)"><path style="text-indent:0;text-transform:none;direction:ltr;block-progression:tb;baseline-shift:baseline;color:#000000;enable-background:accumulate;" d="m 49.843798,958.37213 c -12.2945,0.48225 -21.6634,4.83695 -27.8438,11.53125 -6.191,6.70575 -9.1218,15.6491 -9,25.125 0.2428,18.90072 12.5615,40.02062 35.9375,51.06252 0.7556,0.3517 1.4959,0.3452 2.0937,0 23.3863,-11.0389 35.724601,-32.1556 35.968801,-51.06252 0.1225,-9.4758 -2.8411,-18.41918 -9.031201,-25.125 -6.1267,-6.63681 -15.3926,-10.95624 -27.5313,-11.5 -0.215,0 -0.401,-0.0211 -0.5937,-0.0312 z m -21.3438,31.90625 c 5.9286,0.051 10.6212,1.6276 13.8438,4.9062 4.1248,4.1967 5.4203,10.72922 4.5624,19.00012 -0.2998,0.9337 -0.6931,1.5999 -1.7812,1.7812 -8.2882,0.8549 -14.8212,-0.4505 -19.0312,-4.5625 -4.2102,-4.1119 -5.6351,-10.6285 -4.625,-19.06252 0.053,-0.4412 0.2794,-0.8734 0.5937,-1.1875 0.3143,-0.3141 0.715,-0.5099 1.1563,-0.5625 1.8496,-0.2202 3.6212,-0.3267 5.2812,-0.3125 z m 42.8438,0 c 1.6599,-0.014 3.4002,0.092 5.25,0.3125 0.4411,0.053 0.8731,0.2484 1.1874,0.5625 0.3145,0.3141 0.5098,0.7463 0.5626,1.1875 1.0099,8.43362 -0.3847,14.95022 -4.5938,19.06252 -4.2091,4.1124 -10.7385,5.4173 -19.0312,4.5625 -0.9341,-0.2993 -1.5992,-0.6932 -1.7813,-1.7812 -0.8576,-8.2709 0.4378,-14.80342 4.5625,-19.00012 3.2225,-3.2786 7.9151,-4.8556 13.8438,-4.9062 z m -26.5626,37.06252 a 2.000005,2.000005 0 0 1 0.1876,0 l 10,0 a 2.000005,2.000005 0 1 1 0,4 l -10,0 a 2.0021984,2.0021984 0 0 1 -0.1876,-4 z" fill="#8B008B" fill-opacity="1" fill-rule="evenodd" stroke="none" marker="none" visibility="visible" display="inline" overflow="visible"></path></g></svg>