<svg fill="#DA70D6" xmlns="http://www.w3.org/2000/svg" xmlns:xlink="http://www.w3.org/1999/xlink" version="1.1" x="0px" y="0px" viewBox="0 0 144.083 144" enable-background="new 0 0 144.083 144" xml:space="preserve"><path d="M108.284,15.489c-1.105-0.227-2.234-0.341-3.354-0.341c-7.873,0-14.734,5.605-16.327,13.394l-3.518,19.349  C76.63,45.845,67.455,45.845,59,47.892l-3.53-19.414c-1.58-7.724-8.441-13.329-16.314-13.329c-1.121,0-2.249,0.114-3.354,0.341  c-4.362,0.893-8.114,3.43-10.567,7.145c-2.453,3.715-3.313,8.162-2.42,12.523l0.045,0.225l10.36,28.039  c-5.997,7.867-9.178,22.767-9.178,31.181c0,21.125,18.393,34.25,48,34.25c29.608,0,48.001-13.125,48.001-34.25  c0-8.414-3.182-23.313-9.179-31.181l10.282-27.824l0.125-0.439C123.113,26.154,117.286,17.331,108.284,15.489z M115.434,33.744  l-11.436,30.949l1.247,1.351c5.035,5.452,8.798,19.573,8.798,28.558c0,20.828-21.696,28.25-42.001,28.25  c-20.304,0-42-7.422-42-28.25c0-8.984,3.762-23.105,8.797-28.558l1.247-1.351L28.651,33.744c-0.501-2.724,0.06-5.487,1.59-7.805  c1.57-2.377,3.972-4.001,6.763-4.572c0.711-0.145,1.435-0.219,2.152-0.219c5.036,0,9.425,3.588,10.424,8.467l4.709,25.905  l3.234-1.002c4.645-1.438,9.529-2.168,14.52-2.168s9.875,0.729,14.52,2.168l3.233,1.002l4.697-25.84  c1.012-4.944,5.4-8.532,10.437-8.532c0.717,0,1.441,0.074,2.151,0.219C112.772,22.532,116.48,28.056,115.434,33.744z"></path><path d="M106.481,24.307c-0.514-0.104-1.035-0.158-1.551-0.158c-3.6,0-6.738,2.553-7.486,6.078l-4.301,26.161l8.404,5.99  l10.975-29.411C113.133,28.963,110.493,25.128,106.481,24.307z"></path><path d="M39.156,24.148c-0.516,0-1.037,0.054-1.551,0.158c-4.012,0.821-6.652,4.656-6.042,8.66l10.975,29.411l8.405-5.99  l-4.301-26.161C45.894,26.701,42.754,24.148,39.156,24.148z"></path><circle cx="45.042" cy="90.977" r="5.625"></circle><circle cx="99.043" cy="90.977" r="5.625"></circle><path d="M84.764,100.475c-1.657,0-3,1.344-3,3c0,1.861-1.514,3.375-3.375,3.375c-1.53,0-2.812-1.031-3.223-2.431  c1.163-0.413,2.002-1.513,2.002-2.817c0-1.658-1.343-3-3-3h-4.251c-1.657,0-3,1.342-3,3c0,1.305,0.839,2.404,2.002,2.817  c-0.412,1.399-1.693,2.431-3.224,2.431c-1.861,0-3.375-1.514-3.375-3.375c0-1.656-1.343-3-3-3s-3,1.344-3,3  c0,5.17,4.206,9.375,9.375,9.375c2.449,0,4.675-0.951,6.347-2.495c1.672,1.544,3.897,2.495,6.347,2.495  c5.169,0,9.375-4.205,9.375-9.375C87.764,101.818,86.421,100.475,84.764,100.475z"></path></svg>