<svg fill="#00008B" xmlns="http://www.w3.org/2000/svg" xmlns:xlink="http://www.w3.org/1999/xlink" version="1.1" x="0px" y="0px" viewBox="0 0 96 96" enable-background="new 0 0 96 96" xml:space="preserve"><path d="M95.275,53.652c-0.631-0.74-1.567-1.112-2.768-1.112c-4.54,0-15.432,6.04-20.172,8.796  c-3.148-5.752-12.031-21.832-15.076-26.112c1.717-1.332,7.36-3.632,13.284-5.368c0.74-0.212,1.284-0.832,1.416-1.592  c0.124-0.756-0.192-1.516-0.819-1.96c-3.537-2.496-8.541-3.756-14.873-3.756c-6.728,0-13.027,1.416-15.271,1.98  C22.324,13.26,10.516,7.776,4.912,7.776c-2.772,0-3.972,1.284-4.492,2.356c-1.828,3.784,2.824,10.292,4.904,12.916  c0.092,0.12,0.2,0.224,0.316,0.316c3.044,2.444,5.84,4.764,8.296,6.844c-4-1.552-7.284-2.668-7.564-2.756  c-0.708-0.24-1.484-0.064-2.02,0.452c-0.536,0.512-0.744,1.284-0.536,2c1.576,5.44,8.192,11.764,20.228,19.329  c5.16,20.859,6.728,20.983,8.388,21.104c1.012,0.072,1.956-0.648,2.124-1.664c0.012-0.084,1.192-7.195,2.732-11.852  C45.072,60.756,64.16,69.516,67.88,71.22l8.836,15.972c0.36,0.652,1.032,1.037,1.752,1.037c0.185,0,0.368-0.024,0.556-0.08  c0.896-0.256,1.492-1.101,1.44-2.032c-0.004-0.108-0.596-11.089-0.164-15.148c0.269-2.5,7.872-8.852,14.761-13.304  c0.476-0.313,0.803-0.813,0.892-1.376C96.141,54.98,95.688,54.132,95.275,53.652z M22.472,23.752c-0.36,0.4-0.88,0.6-1.4,0.6  s-1.04-0.2-1.4-0.56c-0.4-0.4-0.6-0.916-0.6-1.44c0-0.52,0.2-1.036,0.6-1.4c0.72-0.76,2.08-0.76,2.8,0c0.404,0.36,0.6,0.88,0.6,1.4  S22.872,23.392,22.472,23.752z"></path></svg>