<svg fill="#F0E68C" xmlns="http://www.w3.org/2000/svg" xmlns:xlink="http://www.w3.org/1999/xlink" version="1.1" viewBox="0 0 96 96" x="0px" y="0px"><path d="M77.64 40.16c-0.196-2.28-0.604-4.368-1.224-6.276l1.536-1.724c6.688-7.472 10.048-11.224 10.048-23.16v-2.008c0-1.108-0.9-2-2-2-1.104 0-2 0.892-2 2v2.004c0 10.412-2.456 13.156-9.024 20.492l-0.336 0.376c-0.604-1.068-1.268-2.084-2.060-3-2.216-2.576-5.12-4.496-8.732-5.8-0.344-2.468-1.296-4.844-2.768-6.92 4.264-1.824 10.92-5.38 10.92-9.844v-1.308c0-1.108-0.9-2-2-2-1.104 0-2 0.892-2 2v1.308c0 1.752-5.008 4.8-9.852 6.708-2.728-2.3-6.156-3.812-9.928-3.812-3.836 0-7.312 1.556-10.060 3.924-5.008-1.988-10.16-5.132-10.16-6.824v-1.304c0-1.108-0.896-2-2-2s-2 0.892-2 2v1.308c0 4.464 6.852 8.1 11.252 9.972-1.428 2.052-2.336 4.4-2.672 6.828-3.588 1.3-6.512 3.2-8.724 5.764-0.952 1.112-1.744 2.364-2.436 3.696l-0.776-0.88c-7.156-8.088-8.644-9.764-8.644-20.684v-2.004c0-1.108-0.896-2-2-2s-2 0.892-2 2v2.004c0 12.44 2.432 15.184 9.656 23.336l1.316 1.488c0.248 0.28 0.56 0.44 0.888 0.552-0.508 1.7-0.836 3.56-1.024 5.548-10.236 3.16-14.832 10.472-14.832 23.68v3.392c0 1.108 0.896 2 2 2s2-0.892 2-2v-3.392c0-10.812 3.156-16.54 10.652-19.364 0.032 2.436 0.256 5.048 0.68 7.856 0.048 0.344 0.116 0.68 0.172 1.024-0.2 0.196-0.368 0.416-0.476 0.696l-0.72 1.796c-5.624 14.092-7.136 17.884-1.984 33.732 0.276 0.84 1.060 1.38 1.904 1.38 0.204 0 0.416-0.032 0.616-0.092 1.052-0.344 1.624-1.476 1.284-2.52-4.344-13.36-3.7-16.832 0.724-28.060 4.764 20.132 15.768 34.96 26.772 34.96 0.236 0 0.476 0 0.48-0.024 0.24 0.024 0.472 0.024 0.712 0.024 10.944 0 21.892-14.664 26.696-34.608 4.296 10.944 4.888 14.488 0.584 27.708-0.34 1.052 0.236 2.176 1.28 2.52 0.204 0.072 0.416 0.092 0.62 0.092 0.84 0 1.62-0.54 1.904-1.38 5.156-15.84 3.64-19.628-1.976-33.708l-0.728-1.82c-0.072-0.18-0.192-0.324-0.304-0.468 0.072-0.416 0.152-0.824 0.212-1.244 0.416-2.736 0.624-5.272 0.672-7.652 7.18 2.88 10.216 8.576 10.216 19.144v3.392c0 1.108 0.896 2 2 2s2-0.892 2-2v-3.392c0.004-12.944-4.472-20.188-14.356-23.432z" fill="#F0E68C"></path></svg>