<svg fill="#DAA520" xmlns="http://www.w3.org/2000/svg" xmlns:xlink="http://www.w3.org/1999/xlink" version="1.1" viewBox="0 0 96 96" x="0px" y="0px"><path d="M83.476 9.008v-6.612c0-0.652-0.312-1.252-0.836-1.628-0.532-0.376-1.204-0.472-1.82-0.26-0.368 0.132-8.828 3.164-11.172 11.776-0.36 0.296-0.744 0.6-1.132 0.916-0.9 0.716-1.836 1.476-2.664 2.236-9.248 0.972-38.204 16.564-39.052 42.008-3.368 2.4-6.384 7.828-9.828 14.028-4.436 7.984-9.46 17.032-15.188 18.916-0.932 0.304-1.504 1.244-1.352 2.216 0.156 0.972 0.992 1.684 1.976 1.684 14.976 0 21.84-4.668 27.9-8.792 4.884-3.324 9.1-6.192 17.096-6.192 2.516 0 4.78-0.964 6.772-1.816l0.508-0.216c4.932 1.58 7.5 12.58 8.016 16.444 0.132 0.992 0.976 1.736 1.984 1.736l12.64 0.056c0.328 0.056 0.64 0.092 0.936 0.092 1.080 0 1.772-0.484 2.172-0.892 0.692-0.708 1.428-1.592 1.392-3.16l-0.040-2.54c-0.056-2.62-2.156-5.56-4.88-5.56h-4.416c4.492-6.776 4.484-12.968 2.736-16.804-1.444-3.172-4.18-5.084-7.34-5.132 0.168-0.928 0.276-1.948 0.276-3.064 0-2.92 0.58-7.8 1.64-12.888 0.044 0.004 0.084 0.028 0.124 0.028 0.648 0 1.36 1.408 1.984 2.644 1.024 2.044 2.432 4.848 5.552 4.848 1.104 0 2-0.896 2-2s-0.896-2-2-2c-0.648 0-1.356-1.404-1.98-2.644-0.936-1.868-2.204-4.332-4.78-4.76 1.436-5.596 3.432-10.92 5.9-13.644 2.392 1.092 5.3 1.704 8.228 1.704 4.244 0 7.944-1.272 10.172-3.488 0.384-0.376 0.588-0.888 0.588-1.416 0-7-7.392-13.38-12.112-15.824z" fill="#DAA520"></path></svg>