<svg fill="#C0C0C0" xmlns="http://www.w3.org/2000/svg" xmlns:xlink="http://www.w3.org/1999/xlink" version="1.1" x="0px" y="0px" viewBox="0 0 144.083 144" enable-background="new 0 0 144.083 144" xml:space="preserve"><path d="M127.279,45.788L105.312,26.3c-1.188-1.053-2.989-1-4.112,0.123L84.161,43.46c-0.221,0.22-0.386,0.472-0.523,0.734  c-3.642-0.784-7.538-1.161-11.596-1.161s-7.955,0.377-11.597,1.161c-0.138-0.262-0.303-0.513-0.523-0.733L42.883,26.423  c-1.122-1.123-2.924-1.176-4.112-0.123L16.804,45.788c-1.24,1.1-1.353,2.996-0.253,4.235c0.593,0.668,1.417,1.009,2.245,1.009  c0.708,0,1.419-0.249,1.99-0.756l19.853-17.613l13.443,13.442C43.195,50.434,35.854,59.594,35.854,75.2  c0,21.024,13.315,39.909,30.693,43.256v-17.402h10.989v17.402c17.377-3.347,30.693-22.231,30.693-43.256  c0-15.606-7.341-24.766-18.229-29.094l13.443-13.442l19.853,17.613c0.571,0.507,1.282,0.756,1.99,0.756  c0.828,0,1.652-0.341,2.245-1.009C128.631,48.784,128.518,46.888,127.279,45.788z M53.415,94.54c-3.393,0-6.144-2.75-6.144-6.144  s2.751-6.143,6.144-6.143c3.394,0,6.143,2.749,6.143,6.143S56.809,94.54,53.415,94.54z M96.811,88.396  c0,3.394-2.752,6.144-6.145,6.144s-6.143-2.75-6.143-6.144s2.75-6.143,6.143-6.143S96.811,85.003,96.811,88.396z"></path></svg>