<svg fill="#0000FF" xmlns="http://www.w3.org/2000/svg" xmlns:xlink="http://www.w3.org/1999/xlink" version="1.1" viewBox="0 0 96 96" x="0px" y="0px"><path d="M17.196 40.068c0-7.028 2.448-13.732 6.52-18.896-12.416 0.844-20.876 8.252-23.768 15.868-0.336 0.884-0.008 2.296 0.784 2.808 3.908 2.516 10.656 5.448 16.78 5.448 0.012 0 0.024 0 0.036 0-0.208-4-0.352-3.756-0.352-5.228z" fill="#0000FF"></path><path d="M96.056 36.924c-2.868-7.568-11.216-15.040-23.452-15.968 4.064 5.16 6.504 11.612 6.504 18.632 0 1.524-0.152 3.196-0.38 4.924 6.088-0.004 12.712-2.736 16.54-5.2 0.788-0.516 1.116-1.512 0.788-2.388z" fill="#0000FF"></path><path d="M60.148 40.524c0 1.105-0.895 2-2 2s-2-0.895-2-2c0-1.105 0.895-2 2-2s2 0.895 2 2z" fill="#0000FF"></path><path d="M62.664 17.296h3.484c6.4 0 11.040-5.044 11.040-12 0-1.108-0.9-2-2-2s-2 0.892-2 2c0 3.852-2.204 8-7.040 8h-13.916c-0.132 0-0.252 0.052-0.368 0.076-1.22-0.168-2.452-0.28-3.716-0.28-1.232 0-2.432 0.112-3.616 0.268-0.104-0.016-0.196-0.060-0.3-0.060h-12.080c-4.388 0-7.96-3.588-7.96-8 0-1.108-0.896-2-2-2s-2 0.892-2 2c0 6.62 5.364 12 11.96 12h1.484c-7.468 4.716-12.436 12.936-12.436 22.292 0 7.148 2.84 17.256 7.12 25.708h39.66c4.284-8.448 7.12-18.56 7.12-25.708 0-9.36-4.964-17.58-12.436-22.296zM38.148 46.524c-3.308 0-6-2.692-6-6s2.692-6 6-6 6 2.692 6 6-2.688 6-6 6zM58.148 46.524c-3.308 0-6-2.692-6-6s2.692-6 6-6 6 2.692 6 6-2.688 6-6 6z" fill="#0000FF"></path><path d="M28.808 69.296c-0.34 0.976-0.576 1.976-0.576 2.892v10.336c0 2.392 1.36 5.548 4.256 7.088 6.312 2.168 10.944 3.088 15.5 3.088v0c4.584 0 9.34-0.96 16.2-3.336 2.528-1.368 4.040-4.752 4.040-7.248v-10.62c0-0.74-0.128-1.492-0.36-2.204l-39.060 0.004zM40.232 81.296c0 1.108-0.896 2-2 2s-2-0.892-2-2v-8c0-1.108 0.896-2 2-2s2 0.892 2 2v8zM60.236 81.296c0 1.108-0.9 2-2 2-1.104 0-2-0.892-2-2v-8c0-1.108 0.896-2 2-2 1.1 0 2 0.892 2 2v8z" fill="#0000FF"></path><path d="M40.148 40.524c0 1.105-0.895 2-2 2s-2-0.895-2-2c0-1.105 0.895-2 2-2s2 0.895 2 2z" fill="#0000FF"></path></svg>