<svg fill="#DAA520" xmlns="http://www.w3.org/2000/svg" xmlns:xlink="http://www.w3.org/1999/xlink" version="1.1" x="0px" y="0px" viewBox="0 0 24 24" enable-background="new 0 0 24 24" xml:space="preserve"><path d="M14.1,12.4l-1.3-2.1C16.7,3.8,14,2,14,2C11,2.1,9,8,9,8S8.4,9,8.2,5.3C8,1.6,7,2.1,7,2.1C3.7,2.7,6,8.7,6,8.7  c-0.7,0-2,1.2-2.4,2c-3.3,5.9-0.4,7.1-0.4,7.1c0.5,0.8,2.8,0.5,3.7,0.7C7.7,18.7,8,22,8,22h14v-8C18.6,11.4,14.1,12.4,14.1,12.4z   M4,15.9c0,0.1-0.1,0.2-0.2,0.3c-0.1,0.2-0.2,0.4-0.3,0.7c0,0.1-0.1,0.2-0.1,0.2c0,0-0.1,0-0.1,0c-0.2-0.1-0.3-0.4-0.4-0.6l0.1,0  c0.4-0.2,0.6-0.6,1-0.8C4,15.7,4,15.8,4,15.9z M7,13c-0.6,0-1-0.4-1-1c0-0.6,0.5-1,1-1c0.6,0,1,0.4,1,1C8,12.6,7.6,13,7,13z"></path></svg>