<svg fill="#5F9EA0" xmlns="http://www.w3.org/2000/svg" xmlns:xlink="http://www.w3.org/1999/xlink" version="1.1" x="0px" y="0px" viewBox="0 0 144.083 144" enable-background="new 0 0 144.083 144" xml:space="preserve"><path d="M109.497,71.064l-4.381-17.084c0-20.687-12.389-35.265-33.074-35.265c-20.687,0-33.074,14.578-33.074,35.265l-4.381,17.084  c0,10.021,3.948,18.407,10.358,24.401l-4.777,11.318v0.607c0,11.858,16.346,16.71,24.989,17.618  c1.656,0.175,4.166,0.274,6.885,0.274c2.718,0,5.228-0.1,6.884-0.274c8.644-0.908,24.989-5.76,24.989-17.618v-0.607l-4.777-11.318  C105.548,89.472,109.497,81.086,109.497,71.064z M92.743,46.903c2.795,0,5.059,2.264,5.059,5.058s-2.264,5.058-5.059,5.058  c-2.793,0-5.057-2.264-5.057-5.058S89.95,46.903,92.743,46.903z M51.339,46.903c2.794,0,5.058,2.264,5.058,5.058  s-2.264,5.058-5.058,5.058s-5.058-2.264-5.058-5.058S48.545,46.903,51.339,46.903z M78.298,119.043  c-1.437,0.151-3.776,0.241-6.257,0.241c-2.481,0-4.821-0.09-6.258-0.241c-6.237-0.656-18.947-4.218-19.591-11.104l10.928-25.887  v-0.607c0-8.481,6.972-15.922,14.921-15.922c7.948,0,14.92,7.44,14.92,15.922v0.607l10.928,25.887  C97.245,114.824,84.536,118.387,78.298,119.043z"></path><rect x="62.813" y="75.646" width="6" height="11.113"></rect><rect x="75.27" y="75.646" width="6" height="11.113"></rect></svg>