<svg fill="#6B8E23" xmlns="http://www.w3.org/2000/svg" xmlns:xlink="http://www.w3.org/1999/xlink" version="1.1" x="0px" y="0px" viewBox="0 0 144.083 144" enable-background="new 0 0 144.083 144" xml:space="preserve"><path d="M90.598,44.98c-1.019-6.696-5.593-12.232-11.729-14.64c0.684-5.165,5.104-9.167,10.453-9.167c1.658,0,3-1.343,3-3  s-1.342-3-3-3c-8.226,0-15.051,6.038-16.323,13.911c-0.319-0.016-0.635-0.048-0.958-0.048c-0.271,0-0.536,0.029-0.805,0.041  c-1.275-7.869-8.099-13.903-16.322-13.903c-1.656,0-3,1.343-3,3s1.344,3,3,3c5.33,0,9.738,3.975,10.444,9.113  c-6.208,2.376-10.846,7.945-11.873,14.693c-15.003,7.012-25.428,22.24-25.428,39.864c0,24.252,19.731,43.982,43.983,43.982  s43.982-19.73,43.982-43.982C116.024,67.22,105.6,51.992,90.598,44.98z M102.763,107.141c0.589-1.354,0.921-2.844,0.921-4.412  c0-6.115-4.973-11.088-11.086-11.088S81.51,96.613,81.51,102.729c0,6.113,4.975,11.086,11.088,11.086  c2.123,0,4.101-0.61,5.788-1.649c-6.159,5.941-14.311,9.821-23.345,10.531V84.844h-6v37.853c-9.036-0.71-17.189-4.591-23.35-10.534  c1.689,1.041,3.67,1.652,5.795,1.652c6.113,0,11.086-4.973,11.086-11.086c0-6.115-4.973-11.088-11.086-11.088  s-11.088,4.973-11.088,11.088c0,1.57,0.333,3.063,0.924,4.418c-4.563-6.269-7.265-13.975-7.265-22.303  c0-8.331,2.703-16.039,7.268-22.307c-0.593,1.356-0.927,2.851-0.927,4.424c0,6.114,4.975,11.086,11.088,11.086  s11.086-4.973,11.086-11.086S57.6,55.873,51.487,55.873c-2.126,0-4.108,0.612-5.798,1.655C52.525,50.93,61.814,46.86,72.042,46.86  c10.226,0,19.513,4.069,26.348,10.664c-1.688-1.041-3.667-1.651-5.791-1.651c-6.113,0-11.088,4.974-11.088,11.088  s4.975,11.086,11.088,11.086s11.086-4.973,11.086-11.086c0-1.571-0.333-3.063-0.924-4.418c4.563,6.268,7.264,13.974,7.264,22.302  C110.024,93.17,107.324,100.874,102.763,107.141z"></path></svg>