<svg fill="#3CB371" xmlns="http://www.w3.org/2000/svg" xmlns:xlink="http://www.w3.org/1999/xlink" version="1.1" x="0px" y="0px" viewBox="0 0 24 24" enable-background="new 0 0 24 24" xml:space="preserve"><path d="M22,19.6c-0.5-1.5-6-5-6-5c3-4.3-1.2-10-1.2-10c-0.4-0.6-1-1.1-1.6-1.4c-0.3-0.2-0.8-0.3-0.9,0.1c-0.1,0.1-0.1,0.3-0.1,0.4  c0,0.4,0.1,0.8,0.2,1.3c-0.5-0.8-1.1-1.6-1.8-2.3C10.3,2.4,10,2,9.7,2c-0.5-0.1-0.9,0.5-1,1.1C8.5,3.6,8.7,4.1,8.9,4.7  C8.3,4.3,7.7,3.9,7.1,3.6C6.9,3.5,6.7,3.4,6.4,3.4C6.1,3.5,6,3.9,6,4.2c0.1,0.3,0.3,0.6,0.5,0.9c0.3,0.4,0.6,0.8,0.9,1.2  C6.5,5.6,5.6,5,4.5,5c-0.2,0.4-0.1,0.8,0,1.1c0.2,0.4,0.4,0.7,0.7,1C4.7,6.8,4,6.6,3.4,6.7c-0.1,0-0.2,0-0.2,0.1  C3,6.8,3.1,7,3.1,7.1c0.2,0.7,0.5,1.3,1,1.8c-0.4-0.4-1-0.5-1.4-0.3c0.2,0.8,0.6,1.5,1.2,2.1c-0.3-0.2-0.7-0.3-1.1-0.2  c-0.1,0.3,0.2,0.6,0.4,0.8c1.1,1,2.6,1.5,3.9,2.2c0.1,0,0.2,0.1,0.2,0.2c0.1,0.2,0,0.5-0.3,0.6c-0.2,0.1-0.5,0.1-0.8,0.1  C5,14.4,2,16.1,2,16.1V22h9c1-1.8,3-5.5,3-5.5c1.4-0.3,4.5,1.5,4.5,1.5S22.4,21,22,19.6z M12,15.1c-0.6,0-1-0.4-1-1c0-0.6,0.4-1,1-1  c0.6,0,1,0.4,1,1C13,14.6,12.5,15.1,12,15.1z"></path></svg>