<svg fill="#F4A460" xmlns="http://www.w3.org/2000/svg" xmlns:xlink="http://www.w3.org/1999/xlink" version="1.1" x="0px" y="0px" viewBox="0 0 144.083 144" enable-background="new 0 0 144.083 144" xml:space="preserve"><path d="M113.432,69.069c1.657,0,3-1.344,3-3V49.105c0-1.657-1.343-3-3-3s-3,1.343-3,3v13.964H83.35  c1.197-1.296,2.188-2.788,2.887-4.438l19.715-13.81c0.802-0.562,1.279-1.479,1.279-2.457V20.354c0-1.657-1.343-3-3-3s-3,1.343-3,3  v20.45l-13.934,9.76c-1.011-7.532-7.447-13.346-15.257-13.346c-7.809,0-14.244,5.814-15.255,13.345l-13.932-9.759v-20.45  c0-1.657-1.343-3-3-3s-3,1.343-3,3v22.012c0,0.979,0.477,1.896,1.279,2.457l19.713,13.809c0.699,1.65,1.688,3.141,2.887,4.438H33.65  V49.105c0-1.657-1.343-3-3-3s-3,1.343-3,3v16.964c0,1.656,1.343,3,3,3h27.311c-1.326,1.714-2.447,3.669-3.317,5.808H30.65  c-1.657,0-3,1.343-3,3v16.967c0,1.657,1.343,3,3,3s3-1.343,3-3V80.877h19.317c-0.095,0.585-0.168,1.18-0.229,1.779  c-0.575,0.107-1.125,0.381-1.569,0.826L35.14,99.512c-0.563,0.563-0.879,1.325-0.879,2.121v22.014c0,1.657,1.343,3,3,3s3-1.343,3-3  v-20.771l12.687-12.687c1.737,11.046,9.623,19.391,19.093,19.391c9.472,0,17.358-8.345,19.095-19.391l12.686,12.686v20.771  c0,1.657,1.343,3,3,3s3-1.343,3-3v-22.014c0-0.796-0.316-1.559-0.879-2.121L92.913,83.482c-0.445-0.445-0.994-0.719-1.569-0.826  c-0.06-0.6-0.134-1.194-0.229-1.779h19.317v13.967c0,1.657,1.343,3,3,3s3-1.343,3-3V77.877c0-1.657-1.343-3-3-3H89.439  c-0.87-2.139-1.992-4.093-3.317-5.808H113.432z M64.374,53.097c0-4.234,3.433-7.667,7.667-7.667c4.235,0,7.667,3.433,7.667,7.667  c0,1.19-0.279,2.313-0.764,3.319l0,0c-0.353,0.732-0.817,1.4-1.371,1.981c-0.003,0.002-0.005,0.005-0.007,0.007  c-0.264,0.275-0.55,0.527-0.852,0.761c-0.036,0.027-0.072,0.054-0.109,0.081c-0.303,0.226-0.621,0.435-0.957,0.615  c-1.075,0.575-2.303,0.902-3.607,0.902s-2.531-0.328-3.606-0.902l0,0c-0.337-0.18-0.655-0.389-0.958-0.615  c-0.036-0.027-0.072-0.053-0.107-0.081c-0.303-0.234-0.59-0.487-0.854-0.763c-0.002-0.001-0.003-0.003-0.005-0.005  c-0.555-0.582-1.02-1.25-1.373-1.984h0C64.653,55.409,64.374,54.287,64.374,53.097z"></path></svg>