<svg fill="#8B4513" xmlns="http://www.w3.org/2000/svg" xmlns:xlink="http://www.w3.org/1999/xlink" version="1.1" x="0px" y="0px" viewBox="0 0 24 24" enable-background="new 0 0 24 24" xml:space="preserve"><path d="M20.7,7c-1,0.2-2.1-0.2-2.7-1c-0.5-0.6-0.9-1.4-1.6-1.5c-0.4-0.1-0.8,0.1-1.2,0.4c-0.2,0.1-0.4,0.3-0.6,0.4  c-0.2,0-0.4,0-0.5,0C11.8,5.1,9.6,4.8,8,3.3C7.6,2.9,7.2,2.4,6.6,2.1C5.5,1.6,4.3,2.6,3.5,3.6c-0.4,0.5-0.7,1-1.1,1.5  C2.1,5.6,1.8,6.3,2.1,6.8c0.2,0.5,0.8,0.7,1.3,0.8C5,7.9,6.6,8.1,8.2,8.1c0.2,0,0.5,0,0.7,0.1C9,8.3,9.2,8.4,9.3,8.6  c1.3,1.8,1.8,4.2,1.4,6.4c-0.2,1.1-0.7,2.2-1.4,3.1c-0.3-0.2-0.6-0.4-0.9-0.6C8.2,17.2,8,17,7.8,16.8c-0.1-0.2-0.2-0.5-0.3-0.7  c-0.1-0.4-0.1-0.7-0.1-0.7l-0.2,0c0,0-0.1,0.3-0.1,0.9c0,0.3,0.1,0.6,0.2,0.9c0.1,0.3,0.3,0.6,0.4,0.9c0.1,0.2,0.3,0.4,0.5,0.6  c-0.3-0.2-0.6-0.4-0.9-0.6c-0.2-0.2-0.4-0.4-0.5-0.6c-0.1-0.2-0.2-0.5-0.3-0.7c-0.1-0.4-0.1-0.7-0.1-0.7l-0.2,0c0,0-0.1,0.3-0.1,0.9  c0,0.3,0.1,0.6,0.2,0.9c0.1,0.3,0.3,0.6,0.4,0.9c0.3,0.4,0.6,0.8,0.9,1.1c-0.1,0.1-0.3,0.2-0.5,0.3c-0.3,0.2-0.7,0.4-0.7,0.7  c0,0.4,0.4,0.7,0.8,0.9c1,0.3,2.1,0.4,3.2,0.2c0.5-0.1,1.1-0.3,1.6-0.5c3.3-1.1,7-1,10.3,0.1V7.2L20.7,7z M16,8c-0.6,0-1-0.4-1-1  s0.4-1,1-1c0.6,0,1,0.4,1,1S16.6,8,16,8z"></path></svg>