<svg fill="#BA55D3" xmlns="http://www.w3.org/2000/svg" xmlns:xlink="http://www.w3.org/1999/xlink" version="1.1" x="0px" y="0px" viewBox="0 0 24 24" enable-background="new 0 0 24 24" xml:space="preserve"><path d="M22,2l-7.4,4.1C14.2,6,13.7,6,13.3,6h-2.6c-0.4,0-0.9,0-1.3,0.1L2,2l2.7,7.8C4.2,10.7,4,11.7,4,12.7l0,0  c0,1.5,0.6,2.9,1.6,3.9l4.7,4.7c0.5,0.5,1.1,0.7,1.7,0.7s1.3-0.3,1.7-0.7l4.7-4.7c1-1,1.6-2.4,1.6-3.9c0-1-0.2-2-0.7-2.9L22,2z   M7,12L7,12c1.8-0.1,3.1,1.2,3,3l0,0l0,0l0,0C8.2,15.1,6.9,13.8,7,12z M12,20l-2-2l4,0L12,20z M14,15L14,15c-0.1-1.8,1.2-3.1,3-3h0  C17.1,13.8,15.8,15.1,14,15z"></path></svg>