<svg fill="#DEB887" xmlns="http://www.w3.org/2000/svg" xmlns:xlink="http://www.w3.org/1999/xlink" version="1.1" x="0px" y="0px" viewBox="0 0 96 96" enable-background="new 0 0 96 96" xml:space="preserve"><path d="M76.704,26.124l6.752-23.576c0.172-0.604,0.052-1.252-0.324-1.752C82.752,0.296,82.156,0,81.536,0  c-6.504,0-12.757,6.2-16.152,11.8C69.695,15.664,73.468,20.692,76.704,26.124z"></path><path d="M19.308,26.168c3.24-5.436,7.008-10.472,11.324-14.344C27.248,6.216,20.98,0,14.468,0c-0.628,0-1.216,0.296-1.592,0.796  c-0.384,0.5-0.5,1.152-0.324,1.752L19.308,26.168z"></path><path d="M64.764,41.64c-0.568,0-2.191,2.184-2.191,6.36s1.623,6.364,2.191,6.364c0.564,0,2.192-2.188,2.192-6.364  S65.328,41.64,64.764,41.64z"></path><path d="M87.664,64.244C87.092,61.96,73.372,8.364,48,8.364c-25.368,0-39.088,53.588-39.668,55.88  c-2.372,9.476-1.008,18.412,3.752,24.5C15.74,93.42,21.052,96,27.048,96C33.276,96,43.66,96,48,89.2C52.34,96,62.736,96,68.956,96  c5.996,0,11.312-2.58,14.964-7.256C88.672,82.652,90.044,73.72,87.664,64.244z M31.236,58.364c-3.528,0-6.192-4.456-6.192-10.364  s2.664-10.36,6.192-10.36c3.528,0,6.188,4.456,6.188,10.36C37.424,53.916,34.76,58.364,31.236,58.364z M60.084,73.092  c0,5.616-5.496,10.368-12,10.368s-12-4.752-12-10.368V72c0-1.107,0.896-2,2-2c1.1,0,2,0.893,2,2v1.092c0,3.393,3.74,6.368,8,6.368  c4.256,0,8-2.976,8-6.368V72c0-1.107,0.896-2,2-2c1.1,0,2,0.893,2,2V73.092L60.084,73.092z M64.764,58.364  c-3.527,0-6.191-4.456-6.191-10.364s2.664-10.36,6.191-10.36c3.528,0,6.192,4.456,6.192,10.36  C70.956,53.916,68.292,58.364,64.764,58.364z"></path><path d="M31.236,41.64c-0.568,0-2.192,2.184-2.192,6.36s1.624,6.364,2.192,6.364c0.564,0,2.192-2.188,2.192-6.364  S31.796,41.64,31.236,41.64z"></path></svg>