<svg fill="#6A5ACD" xmlns="http://www.w3.org/2000/svg" xmlns:xlink="http://www.w3.org/1999/xlink" version="1.1" x="0px" y="0px" viewBox="0 0 24 24" enable-background="new 0 0 24 24" xml:space="preserve"><g><path d="M22,5.5C22,3.6,20.4,2,18.5,2c-1.4,0-2.6,0.8-3.2,2c-0.1,0-0.2,0-0.3,0c-3,0-3,0-6,0C8.9,4,8.8,4,8.7,4   C8.1,2.8,6.9,2,5.5,2C3.6,2,2,3.6,2,5.5c0,1.3,0.7,2.4,1.7,3C3.3,9.4,3,10.3,3,11c0,1,0,1,0,4c0,3,6,7,9,7c3,0,9.1-3.9,9-7   c-0.1-3,0-3,0-4c0-0.7-0.3-1.6-0.7-2.5C21.3,7.9,22,6.8,22,5.5z M17,9c0,1.7-1.3,3-3,3C14,10.3,15.3,9,17,9z M10,12   c-1.7,0-3-1.3-3-3C8.6,9,10,10.3,10,12z M4.4,7.2C4.1,6.9,3.9,6.4,3.9,5.9c0-1.1,0.9-2,2-2c0.5,0,1,0.2,1.3,0.5   C6.2,5,5.2,6.1,4.4,7.2z M7,17c0-1.4,3.1-5,5-5h0c1.9,0,5,3.6,5,5c0,0.7-2.5,3-5,3S7,17.7,7,17z M19.6,7.3   c-0.8-1.1-1.8-2.2-2.9-2.8c0.4-0.3,0.8-0.5,1.3-0.5c1.1,0,2,0.9,2,2C20.1,6.5,19.9,6.9,19.6,7.3z"></path><path d="M12,14c-1.1,0-2,0.4-2,1c0,0.5,0.9,2,2,2s2-1.4,2-2C14,14.5,13.1,14,12,14z"></path></g></svg>