<svg fill="#48D1CC" xmlns="http://www.w3.org/2000/svg" xmlns:xlink="http://www.w3.org/1999/xlink" version="1.1" x="0px" y="0px" viewBox="0 0 24 24" enable-background="new 0 0 24 24" xml:space="preserve"><path d="M22,19.3c-0.1-0.2-0.2-0.4-0.4-0.6c-1-1.4-0.9-3.2-1.3-4.8c-0.3-1.2-0.8-2.3-1.6-3.2c0-0.1-0.1-0.2-0.1-0.3  c-0.2-0.6-0.5-1.2-0.8-1.9c-0.2-0.3-0.4-0.7-0.5-1c-0.2-0.3-0.4-0.6-0.6-1c-0.2-0.3-0.5-0.6-0.7-0.9c-0.3-0.3-0.6-0.6-0.9-0.9  c-0.6-0.5-1.3-1-2-1.4c-0.4-0.2-0.7-0.3-1-0.5l-0.5-0.2c-0.3-0.1-0.4-0.1-0.6-0.2C10.2,2.2,9.5,2.1,8.7,2C8,2,7.3,2,6.7,2.2  C6,2.4,5.4,2.7,5,3C4,3.8,3.6,4.7,3.3,5.3C3.1,6,3,6.3,3,6.3l0,0c0,0,0.1-0.4,0.4-0.9c0.2-0.3,0.4-0.6,0.7-0.9  c0.3-0.3,0.7-0.6,1.1-0.9c0.5-0.2,1-0.4,1.5-0.5c0.6-0.1,1.2,0,1.8,0.2C9.2,3.5,9.8,3.7,10.4,4c0.1,0.1,0.3,0.2,0.4,0.2l0.5,0.3  c0.3,0.2,0.6,0.4,0.9,0.6C12.6,5.5,13,6,13.5,6.5C13.6,6.8,13.8,7,14,7.3c0.2,0.3,0.3,0.6,0.5,0.8c0.1,0.3,0.3,0.6,0.4,0.8  c0,0.1,0.1,0.3,0.1,0.4c-0.2,0-0.3,0.1-0.5,0.1c-0.7,0.2-1.3,0.6-1.9,0.9c-0.5,0.3-1,0.6-1.5,0.8c-0.7,0.4-1.4,0.8-2,1.3  c-0.3,0.2-0.5,0.4-0.8,0.7c-1.2,1.1-2.5,2.2-3.7,3.2c-0.5,0.4-0.9,0.8-1.4,1.1c-0.4,0.2-0.8,0.4-1.2,0.4V22h13  c0.5-0.7,0.8-1.5,1-2.4c-0.7-0.9-0.9-2.1-0.7-3.2c0.2,0.8,0.7,1.5,1.3,2c0.6,0.5,1.4,0.8,2.1,1.2c0.2,0.1,0.5,0.2,0.6,0.4  c0.1,0.1,0.1,0.2,0.1,0.4c0.1,0.3,0.4,0.6,0.7,0.6c0.3,0,0.7-0.3,0.6-0.6c0-0.1-0.1-0.2-0.1-0.3c0.1,0.2,0.4,0.4,0.7,0.3  c0-0.3,0.4-0.3,0.6-0.5C22,19.8,22,19.5,22,19.3z"></path></svg>