<svg fill="#228B22" xmlns="http://www.w3.org/2000/svg" xmlns:xlink="http://www.w3.org/1999/xlink" version="1.1" x="0px" y="0px" viewBox="0 0 144.083 144" enable-background="new 0 0 144.083 144" xml:space="preserve"><g><path d="M128.002,53.397c-0.287-0.425-7.131-10.409-16.193-10.409c-3.702,0-7.245,0.874-10.107,2.429   c-1.049-2.297-2.354-4.425-3.86-6.374c3.272-13.935,11.823-30.028,11.823-30.028s-17.077,8.808-22.958,20.87   c-4.44-2.225-9.427-3.469-14.665-3.469s-10.224,1.245-14.664,3.469c-5.882-12.063-22.959-20.87-22.959-20.87   S42.97,25.11,46.242,39.044c-1.505,1.949-2.811,4.076-3.859,6.373c-2.863-1.555-6.405-2.429-10.107-2.429   c-9.063,0-15.907,9.984-16.194,10.409c-0.686,1.014-0.686,2.343,0,3.357c0.287,0.425,7.132,10.409,16.194,10.409   c2.746,0,5.38-0.465,7.73-1.343l3.195,23.914c0.093,12.777,8.949,23.815,18.138,29.101c3.033,7.096,10.703,16.149,10.703,16.149   s8.053-9.269,11.003-16.328c9.08-5.351,17.745-16.283,17.838-28.922l3.196-23.913c2.35,0.878,4.984,1.343,7.73,1.343   c9.063,0,15.906-9.984,16.193-10.409C128.687,55.74,128.687,54.412,128.002,53.397z M111.809,61.164   c-3.222,0-6.271-0.878-8.366-2.41c-0.855-0.624-1.974-0.753-2.948-0.337c-0.973,0.416-1.655,1.313-1.796,2.362L94.91,89.132   c-0.018,0.132-0.026,0.265-0.026,0.397c0,13.323-11.82,23.841-19.842,26.152v-11.135h1.734c1.657,0,3-1.343,3-3s-1.343-3-3-3   h-9.469c-1.657,0-3,1.343-3,3s1.343,3,3,3h1.734v11.135C61.02,113.37,49.2,102.853,49.2,89.529c0-0.133-0.009-0.266-0.026-0.397   l-3.788-28.354c-0.141-1.049-0.823-1.946-1.796-2.362c-0.379-0.162-0.779-0.241-1.178-0.241c-0.627,0-1.248,0.196-1.771,0.578   c-2.096,1.532-5.146,2.411-8.366,2.411c-3.867,0-7.744-3.54-9.912-6.077c1.946-2.282,5.814-6.099,9.912-6.099   c3.808,0,7.392,1.247,9.355,3.254c0.737,0.754,1.817,1.065,2.842,0.82c1.026-0.245,1.848-1.011,2.164-2.017   c3.506-11.143,13.715-18.629,25.405-18.629c11.691,0,21.9,7.486,25.406,18.629c0.316,1.006,1.138,1.772,2.163,2.017   c1.024,0.245,2.104-0.066,2.843-0.82c1.963-2.007,5.548-3.254,9.355-3.254c3.872,0,7.755,3.55,9.921,6.087   C119.562,57.616,115.68,61.164,111.809,61.164z"></path><circle cx="55.041" cy="69.1" r="5.375"></circle><circle cx="89.043" cy="69.1" r="5.375"></circle></g></svg>