<svg fill="#D2B48C" xmlns="http://www.w3.org/2000/svg" xmlns:xlink="http://www.w3.org/1999/xlink" version="1.1" x="0px" y="0px" viewBox="0 0 144.083 144" enable-background="new 0 0 144.083 144" xml:space="preserve"><path d="M112.357,116.246l-5.981-52.836c-0.079-15.991-11.149-29.427-26.025-33.139c-0.24-8.556-3.862-15.354-8.309-15.354  c-4.447,0-8.07,6.799-8.31,15.354C48.856,33.983,37.788,47.419,37.708,63.41l-5.982,52.836c-0.1,0.884,0.197,1.767,0.812,2.41  c0.615,0.644,1.486,0.986,2.37,0.921c0.062-0.004,6.179-0.41,11.688-0.41c3.883,0,5.813,0.2,6.749,0.369  c4.686,0.842,13.833,6.778,16.962,8.995c0.52,0.367,1.127,0.552,1.734,0.552c0.608,0,1.218-0.186,1.738-0.556  c3.031-2.155,11.904-7.944,16.497-8.832c1.057-0.204,3.293-0.447,7.948-0.447c5.355,0,10.917,0.327,10.972,0.331  c0.879,0.04,1.745-0.288,2.355-0.931C112.162,118.006,112.457,117.126,112.357,116.246z M98.225,113.248  c-4.177,0-7.148,0.182-9.087,0.557c-5.38,1.04-13.488,6.198-17.1,8.635c-3.698-2.486-12.108-7.816-17.632-8.81  c-1.735-0.312-4.29-0.463-7.811-0.463c-3.036,0-6.185,0.114-8.509,0.225l5.602-49.471c0.013-0.112,0.019-0.225,0.019-0.337  c0-12.886,8.65-23.783,20.446-27.208c1.114,6.418,4.221,11.043,7.888,11.043c3.667,0,6.773-4.625,7.887-11.043  c11.797,3.425,20.447,14.322,20.447,27.208c0,0.113,0.007,0.226,0.019,0.337l5.604,49.498  C103.874,113.333,101.047,113.248,98.225,113.248z"></path><circle cx="54.042" cy="61.913" r="5.375"></circle><circle cx="90.042" cy="61.913" r="5.375"></circle><path d="M58.453,69.661l13.336,22.586l-7.506,15.411c0,4.285,3.474,7.759,7.759,7.759s7.758-3.474,7.758-7.759l-7.505-15.411  l13.334-22.586H58.453z M75.119,75.661l-3.077,5.213l-3.078-5.213H75.119z"></path></svg>