<svg fill="#A0522D" xmlns="http://www.w3.org/2000/svg" xmlns:xlink="http://www.w3.org/1999/xlink" version="1.1" x="0px" y="0px" viewBox="0 0 144.083 144" enable-background="new 0 0 144.083 144" xml:space="preserve"><path d="M72.042,104.597c-9.272,0-16.462,2.928-19.622,6.404c1.089,8.93,4.563,22.203,15.612,22.203h8.02  c11.049,0,14.521-13.273,15.61-22.203C88.502,107.523,81.313,104.597,72.042,104.597z M66.938,122.521h-6v-11.8h6V122.521z   M82,122.521h-6v-11.8h6V122.521z"></path><path d="M103.45,30.205c1.605-9.911-6.117-19.409-6.117-19.409s-10.328,6.572-11.934,16.483c-0.088,0.542-0.161,1.079-0.222,1.611  c-3.588-3.756-9.068-5.493-13.139-5.493c-4.125,0-9.294,2.458-12.987,7.102c-0.071-1.053-0.19-2.127-0.367-3.22  C57.079,17.368,46.75,10.796,46.75,10.796s-7.724,9.498-6.118,19.409c1.063,6.559,3.766,11.991,6.915,14.693  C44,50.595,41.903,57.273,41.903,63.823l10.023,39.242c0,0-0.004,0.239,0,0.654c4.966-3.167,12.083-5.123,20.115-5.123  c8.031,0,15.147,1.955,20.113,5.122c0.004-0.414,0-0.653,0-0.653l10.025-39.242c0-6.55-2.098-13.229-5.645-18.925  C99.684,42.196,102.387,36.764,103.45,30.205z M72.039,29.397c2.722,0,7.522,1.465,9.676,4.721c1.53,2.313,1.559,5.345,0.087,9.014  c-8.534,10.176-10.626,17.796-10.709,22.707c-4.538-2.704-10.793-8.688-10.793-21.129C60.299,34.657,67.942,29.397,72.039,29.397z   M53.751,78.26c-3.365,0-6.094-2.728-6.094-6.094c0-3.367,2.729-6.097,6.094-6.097c3.366,0,6.095,2.729,6.095,6.097  C59.846,75.532,57.118,78.26,53.751,78.26z M90.331,78.26c-3.367,0-6.096-2.728-6.096-6.094c0-3.367,2.729-6.097,6.096-6.097  c3.365,0,6.094,2.729,6.094,6.097C96.424,75.532,93.696,78.26,90.331,78.26z"></path></svg>