<svg fill="#A52A2A" xmlns="http://www.w3.org/2000/svg" xmlns:xlink="http://www.w3.org/1999/xlink" version="1.1" x="0px" y="0px" viewBox="0 0 24 24" enable-background="new 0 0 24 24" xml:space="preserve"><path fill="#A52A2A" stroke="#A52A2A" stroke-miterlimit="10" d="M12,12"></path><path d="M20.9,20.6L19.2,16l0,0c0,0-2.4-1.4-4.6-3.2c-0.5-0.5-1.1-0.9-1.6-1.4c-0.4-0.5-0.8-1.1-1-1.6c-0.1-0.3-0.2-0.5-0.2-0.8  c0-0.2-0.1-0.4-0.1-0.6c0-0.4,0.1-0.5,0.1-0.5l0.1,0c0,0,0.1,0.2,0.1,0.5c0,0.1,0.2,0.3,0.2,0.5c0.1,0.2,0.3,0.4,0.4,0.6  c0.1,0.2,0.3,0.4,0.5,0.6c0.2,0.2,0.4,0.4,0.6,0.7c0.4,0.5,0.8,1,1.3,1.5c2,2,4.2,3.7,4.2,3.7l0,0l0.9,0.5c-0.8-9.5-2.9-9.7-2.9-9.7  S16.3,6.3,15.6,5c-0.6-1.3-1.9-3-3.9-3C9.8,2,8.8,4,8.8,4C2.4,7.5,3,8,3,8l6.8-2c0,0,1.3-0.3,0.7,2c-0.5,1.8,1.3,4.1,3.3,5.7  c-0.1,0.1-0.1,0.2-0.2,0.3c-0.2,0.3-0.3,0.6-0.6,0.8c-0.4,0.4-1.1,0.5-1.7,0.7c-0.6,0.1-1.2,0.3-1.6,0.8c0.8-0.2,1.6-0.3,2.5-0.3  c0.9,0.1,1.7,0.4,2.3,1c0.1,0.1,0.2,0.1,0.2,0.1c0,0,0-0.1,0-0.1c0-0.3,0-0.5-0.1-0.7c-0.1-0.2-0.3-0.4-0.5-0.5  c-0.2,0-0.4-0.1-0.4-0.2c0-0.1,0-0.1,0.1-0.2c0.2-0.4,0.5-0.7,0.8-1c0.3,0.2,0.7,0.4,1,0.6c0,0,2.1,1.8,2.8,6.2  c0.1,0.5,0.5,0.8,1,0.8H20C20.7,22,21.2,21.3,20.9,20.6z M11,4.1c0-0.3,0.3-0.6,0.6-0.6c0.3,0,0.6,0.3,0.6,0.6  c0,0.3-0.3,0.6-0.6,0.6C11.3,4.7,11,4.5,11,4.1z"></path></svg>