<svg fill="#51A7F9" xmlns="http://www.w3.org/2000/svg" xmlns:xlink="http://www.w3.org/1999/xlink" version="1.1" x="0px" y="0px" viewBox="0 0 24 24" enable-background="new 0 0 24 24" xml:space="preserve"><path d="M11,2C6.4,2,4.8,4.3,4.3,6c3.5,0.6,4.3,3.4,4.3,3.4C6.9,7.7,4,8,4,8c-4.6,5,0,9,0,9c-0.7-1,0-2.9,0-2.9S5,12.3,7,12  c0,0-1.6,1.6-2.2,3C6.7,16.7,9,16.1,9,16.1c-0.6,1.4,2,4,2,4l1,1.9h10V7C22,7,18.5,2,11,2z M12.5,10.1c-0.8,0-1.5-0.7-1.5-1.5  C11,7.7,11.7,7,12.5,7c0.8,0,1.5,0.7,1.5,1.5C14.1,9.4,13.4,10.1,12.5,10.1z"></path></svg>