<svg fill="#51A7F9" xmlns="http://www.w3.org/2000/svg" xmlns:xlink="http://www.w3.org/1999/xlink" version="1.1" x="0px" y="0px" viewBox="0 0 24 24" enable-background="new 0 0 24 24" xml:space="preserve"><path d="M22,4.4c0-0.1,0-0.1,0-0.1c-0.6,0.5-1.3,0.9-2.1,1c0-0.2,0.1-0.3,0.1-0.5c-0.3,0.2-0.6,0.3-1,0.3c0.3-0.3,0.4-0.7,0.4-1  c-0.7,0.7-1.6,1.2-2.5,1.6c0.3-0.4,0.4-0.9,0.3-1.4c-0.3,0.5-0.7,1-1.2,1.4c0.1-0.4,0.2-0.8,0.3-1.2c-0.3,0.4-0.6,0.8-1,1.1  c0.2-0.3,0.3-0.7,0.3-1.1c-0.6,0.7-1.3,1.3-2.2,1.5c0.1-0.2,0.1-0.5,0.1-0.7c-0.4,0.3-0.9,0.5-1.4,0.6c0.2-0.3,0.4-0.7,0.4-1.1  c-0.2,0.4-0.5,0.7-0.8,0.9c0-0.3,0-0.5-0.1-0.8c-0.1-0.3-0.2-0.5-0.3-0.8c-0.1-0.2-0.3-0.4-0.4-0.6c-0.3-0.4-0.6-0.6-0.9-0.9  C9.5,2.2,9,2,9,2L8.9,2.2c0,0,0.3,0.3,0.7,0.9c0.2,0.3,0.4,0.6,0.5,1c0.1,0.2,0.1,0.4,0.2,0.5c0.1,0.2,0,0.4,0.1,0.5  c0,0.2,0,0.3-0.1,0.4c0,0.1-0.1,0.2-0.2,0.3C9.9,5.9,9.7,6,9.6,6c0,0,0,0,0,0c0-0.1,0.1-0.2,0.1-0.2C9.4,6.1,9,6.3,8.6,6.2  c0.2-0.4,0.2-0.8,0.2-1.1c-0.4,0.6-1,1-1.6,1.3c0.2-0.2,0.4-0.5,0.4-0.8C7.2,6.2,6.2,6.2,5.7,6.7C5.6,6.7,5.6,6.8,5.5,6.8  C5.4,6.8,5.3,6.7,5.1,6.6C4.7,6.2,4.1,5.7,4,5C3.9,4.9,4,4.7,4,4.5C4,4.3,4.1,4.1,4.2,4c0.1-0.2,0.2-0.3,0.3-0.5  c0.1-0.1,0.3-0.3,0.4-0.4c0.2-0.3,0.5-0.4,0.6-0.6c0.2-0.1,0.3-0.2,0.3-0.2L5.6,2.1c0,0-0.1,0.1-0.3,0.1C5.1,2.3,4.8,2.4,4.5,2.6  C4.3,2.7,4.1,2.8,3.9,2.9C3.8,3.1,3.6,3.3,3.4,3.4C3.2,3.6,3.1,3.9,2.9,4.1C2.8,4.4,2.7,4.7,2.6,5c-0.1,0.3,0,0.6,0,0.9  c0.1,0.3,0.1,0.6,0.2,0.8C3,7,3.1,7.1,3.2,7.3C2.8,7.2,2.4,7,2,6.8C2.3,7.5,2.7,8,3.2,8.6c0.2,0.2,0.4,0.6,0.6,0.8  C3.4,9.6,3.1,10.1,3,10.6c-0.1,0.5-0.1,1-0.1,1.5c0,0.8,0,1.6,0,2.3c0,0.6,0,1.2-0.2,1.7c-0.1,0.5-0.3,1-0.5,1.4  c-0.1,0.5-0.2,1-0.2,1.5c-0.1,0.8,0,1.7,0.7,2.2c0.6,0.5,1.4,0.5,2.1,0.4c0.7-0.1,1.5-0.3,1.8-1c0.2,0.2,0.4,0.3,0.7,0.5  c0.1-0.1,0.1-0.2,0.1-0.3c0.2,0.1,0.3,0.2,0.4,0.3c0-0.2,0-0.5,0-0.7c0.3,0.3,0.7,0.5,1.1,0.6c0-0.2,0-0.3-0.1-0.5  c0.2,0,0.4,0,0.6-0.1c-0.1-0.2-0.2-0.5-0.3-0.7c0.3,0.2,0.7,0.2,1.1,0.1c-0.1-0.2-0.2-0.3-0.3-0.4c0.4,0.3,0.8,0.6,1.2,0.8  c-0.1-0.3-0.3-0.6-0.4-0.9c0.6,0.4,1.2,0.7,1.8,1c0.1-0.1,0.1-0.2,0.1-0.4c0.3,0.3,0.7,0.5,1.1,0.6c-0.1-0.3-0.2-0.6-0.2-0.9  c0.2,0.4,0.6,0.9,1.1,0.9c-0.1-0.1-0.1-0.3-0.1-0.4c0.4,0.3,0.8,0.5,1.2,0.8c-0.1-0.4-0.2-0.8-0.3-1.1c0.4,0.4,0.9,0.6,1.4,0.8  c-0.1-0.2-0.2-0.4-0.2-0.6c0.5,0.4,1,0.7,1.7,0.8c0.2,0.3,0.4,0.7,0.6,1H22V4.7c0,0,0,0-0.1-0.1C22,4.6,22,4.6,22,4.4L22,4.4z   M4.2,20.5c-0.2,0.2-0.4,0.3-0.6,0.3c-0.2,0-0.4-0.2-0.4-0.4c0.1-0.2,0.3-0.3,0.5-0.4c0.2-0.1,0.4-0.3,0.5-0.5l0,0  c0.1,0.2,0.2,0.4,0.2,0.6C4.4,20.2,4.3,20.4,4.2,20.5z M6.7,12.9c-0.6,0-1-0.5-1-1c0-0.6,0.5-1,1-1s1,0.5,1,1  C7.7,12.5,7.2,12.9,6.7,12.9z"></path></svg>