<svg fill="#8B008B" xmlns="http://www.w3.org/2000/svg" xmlns:xlink="http://www.w3.org/1999/xlink" version="1.1" viewBox="0 0 96 96" x="0px" y="0px"><path d="M71.908 52.8c-5-4.992-10.828-7.804-16-7.804-0.008 0-0.016 0-0.024 0-4.992 0-8.804 2.84-12.164 5.388-3.828 2.892-6.124 4.408-8.784 3.032-0.996-0.516-1.572-1.040-1.704-1.552-0.34-1.284 1.344-3.872 3.124-6.612 3.5-5.38 8.204-12.612 7.464-22.66 4.788-0.356 8.772-2.184 8.772-9.452 0-6.92-5.608-12.14-13.048-12.14h-2.224c-2.644 0-4.464 1.108-5.16 3.048-9.928 0.764-17.48 8.268-17.48 17.708v15.136c0 1.1 0.896 2 2 2 1.1 0 2-0.9 2-2 0-7.852 6.224-14.28 14.016-14.652-0.144 4.616-4.208 11.080-8.148 17.352-6.108 9.724-12.42 19.772-7.412 26.964 5.2 8.812 13.32 8.604 19.264 8.444 0.752-0.016 1.488-0.036 2.192-0.036 0.912 0 2.34 0.004 4.084 0.008v18.028c0 1.108 0.896 2 2 2 1.1 0 2-0.892 2-2v-14.792l7.48 5.156-3.18 5.552c-0.552 0.96-0.22 2.188 0.744 2.736 0.32 0.18 0.656 0.264 0.992 0.264 0.696 0 1.372-0.36 1.744-1.008l4.092-7.148c0.516-0.904 0.256-2.052-0.6-2.64l-8.888-6.124c3.216 0.004 6.776 0.016 10.348 0.032 8.572 0.028 17.032 0.056 19.916 0.056 1.104 0 2-0.868 2-1.976 0.004-6.856-3.52-14.424-9.416-20.308z" fill="#8B008B"></path></svg>