<svg fill="#D8BFD8" xmlns="http://www.w3.org/2000/svg" xmlns:xlink="http://www.w3.org/1999/xlink" version="1.1" x="0px" y="0px" viewBox="0 0 24 24" enable-background="new 0 0 24 24" xml:space="preserve"><path d="M15,9.5V9c3.4,0.2,4-4,4-4c-4.8-0.6-5.6,2-5.6,2l0.2-0.7C14.1,1.4,8,2,8,2c4.5,1,2.9,5,2.9,5C8.4,6.3,6.5,8.8,5,11.2  c-0.7,1.2-1.7,1.5-2.4,1.5c-0.5,0-0.8,0.6-0.5,1l1.4,2.4c0.2,0.4,0.8,0.6,1.2,0.4c1.3-0.6,2.9-0.2,2.9-0.2C10.2,18,13,17,13,17l4,5  h5V9C18.5,8.3,15,9.5,15,9.5z M9,12c-0.6,0-1-0.5-1-1c0-0.6,0.5-1,1-1c0.6,0,1,0.5,1,1C10,11.6,9.5,12,9,12z"></path></svg>