<svg fill="#4169E1" xmlns="http://www.w3.org/2000/svg" xmlns:xlink="http://www.w3.org/1999/xlink" version="1.1" x="0px" y="0px" viewBox="0 0 96 96" enable-background="new 0 0 96 96" xml:space="preserve"><path d="M30.36,74c0.564,1.376,1.152,2.704,1.752,4H16.084c-1.104,0-2-0.9-2-2s0.896-2,2-2H30.36z M12.084,66c-1.104,0-2,0.9-2,2  s0.896,2,2,2H28.82c-0.476-1.32-0.932-2.656-1.368-4H12.084z M8.084,58c-1.104,0-2,0.9-2,2s0.896,2,2,2h18.128  c-0.4-1.34-0.764-2.672-1.116-4H8.084z M80.084,78c1.104,0,2-0.9,2-2s-0.896-2-2-2H65.645c-0.564,1.376-1.152,2.704-1.752,4H80.084z   M88.084,58H70.908c-0.352,1.328-0.725,2.66-1.116,4h18.292c1.104,0,2-0.9,2-2S89.188,58,88.084,58z M84.084,70c1.104,0,2-0.9,2-2  s-0.896-2-2-2H68.557c-0.44,1.344-0.9,2.68-1.377,4H84.084z M58,33.82c-1.212,0-2.195,0.98-2.195,2.18s0.983,2.184,2.195,2.184  c1.208,0,2.191-0.98,2.191-2.184S59.212,33.82,58,33.82z M38,34c-1.104,0-2,0.9-2,2s0.896,2,2,2s2-0.9,2-2S39.1,34,38,34z   M60.084,62h9.708c-0.392,1.332-0.804,2.668-1.235,4h-8.473c-1.104,0-2,0.9-2,2s0.896,2,2,2h7.096c-0.492,1.359-1.008,2.691-1.543,4  h-5.561c-1.1,0-2,0.9-2,2s0.9,2,2,2h3.8c-0.836,1.788-1.708,3.504-2.624,5.084c-3.484-3.592-8.2-5.624-13.256-5.624  c-5.056,0-9.776,2.028-13.256,5.624c-0.916-1.58-1.788-3.296-2.624-5.084h3.964c1.104,0,2-0.9,2-2s-0.896-2-2-2h-5.72  c-0.536-1.309-1.052-2.641-1.544-4h7.264c1.104,0,2-0.9,2-2s-0.896-2-2-2h-8.64c-0.428-1.332-0.844-2.668-1.236-4h9.876  c1.104,0,2-0.9,2-2s-0.896-2-2-2H25.088c-2.736-10.308-4.236-19.988-4.236-24.54c0-14.94,12.176-27.092,27.14-27.092  c14.964,0,27.14,12.156,27.14,27.092c0,4.556-1.5,14.236-4.235,24.54H60.08c-1.104,0-2,0.9-2,2S58.977,62,60.084,62z M44,36  c0-3.308-2.692-6-6-6s-6,2.692-6,6s2.692,6,6,6S44,39.308,44,36z M64.191,36c0-3.408-2.775-6.18-6.191-6.18s-6.195,2.772-6.195,6.18  c0,3.412,2.775,6.184,6.195,6.184C61.416,42.184,64.191,39.412,64.191,36z M19.42,51.048c-1.732-8.192-2.564-14.964-2.564-17.584  c0-15.264,11.084-27.972,25.636-30.58C37.988-0.252,32.612-2,27.048-2C12.084-2-0.092,10.156-0.092,25.092  C-0.088,37.252,8.124,47.728,19.42,51.048z M79.141,33.46c0,2.624-0.832,9.392-2.564,17.584  c11.296-3.32,19.512-13.788,19.512-25.952C96.088,10.156,83.912-2,68.948-2c-5.568,0-10.94,1.752-15.444,4.88  C68.057,5.488,79.141,18.192,79.141,33.46z M58.977,86.616L58.977,86.616c0,0,0-0.009-0.009-0.009  c-1.384-1.611-3.028-2.899-4.888-3.764c-0.176-0.084-0.368-0.115-0.548-0.199c-0.761-0.316-1.532-0.629-2.349-0.816  c-1.031-0.236-2.096-0.368-3.188-0.368c-1.092,0-2.156,0.132-3.188,0.368c-0.816,0.188-1.584,0.5-2.348,0.816  c-0.18,0.084-0.372,0.111-0.548,0.199c-1.86,0.868-3.504,2.156-4.888,3.764c0,0-0.004,0.009-0.008,0.009l0,0  c-0.196,0.231-0.428,0.407-0.612,0.647c-0.516,0.68-0.544,1.608-0.068,2.32C40.072,95.168,43.996,98,48,98s7.924-2.832,11.656-8.416  c0.476-0.712,0.443-1.641-0.072-2.32C59.408,87.02,59.172,86.844,58.977,86.616z"></path></svg>