<svg fill="#40E0D0" xmlns="http://www.w3.org/2000/svg" xmlns:xlink="http://www.w3.org/1999/xlink" version="1.1" viewBox="0 0 96 96" x="0px" y="0px"><path d="M29.28 10.276c-0.924-1.424-1.556-2.876-1.68-3.828-0.076-0.572-0.392-1.080-0.868-1.404-4.012-2.696-17.256-4.672-22.624-4.672-1.084 0-1.972 0.86-2 1.944-0.176 6.576 2.092 17.4 17.624 21.404 1.88-5.332 5.212-9.976 9.548-13.444z" fill="#40E0D0"></path><path d="M93.888 2.316c-0.032-1.084-0.916-1.944-2-1.944-5.368 0-18.612 1.976-22.62 4.672-0.476 0.324-0.792 0.832-0.872 1.404-0.12 0.956-0.752 2.412-1.688 3.836 4.324 3.472 7.652 8.112 9.548 13.44 15.544-4.008 17.812-14.832 17.632-21.408z" fill="#40E0D0"></path><path d="M58.828 10.080c1.928-1.46 3.204-3.764 3.204-6.376 0-1.108-0.892-2-2-2-1.1 0-2 0.892-2 2 0 2.208-1.776 4-3.96 4h-4.044c-0.12 0-0.228 0.048-0.34 0.068-0.552-0.036-1.1-0.084-1.66-0.084s-1.108 0.048-1.664 0.084c-0.112-0.020-0.216-0.068-0.336-0.068h-4.044c-2.184 0-3.96-1.792-3.96-4 0-1.108-0.896-2-2-2s-2 0.892-2 2c0 2.604 1.26 4.9 3.184 6.36-8.948 4.096-15.184 13.076-15.184 23.496v10.148c0 0.524 0.208 1.032 0.576 1.404l7.424 7.544v25.204c0 9.968 7.908 17.772 18 17.772 9.924 0 18-8.052 18-17.936v-25.264l7.408-7.288c0.384-0.376 0.592-0.892 0.592-1.428v-9.9c0.004-10.536-6.244-19.608-15.196-23.736zM31.944 39.704c-1.104 0-2-0.896-2-2s0.896-2 2-2 2 0.896 2 2-0.892 2-2 2zM40.348 36.368c-0.336 0.224-0.716 0.328-1.092 0.328-0.656 0-1.292-0.32-1.676-0.908-2.264-3.464-7.316-4.62-11.252-2.584-0.092 0.048-0.192 0.052-0.288 0.084 0.020-1.532 0.2-3.028 0.52-4.468 5.316-1.652 11.408 0.252 14.364 4.78 0.608 0.924 0.348 2.164-0.576 2.768zM46.028 79.704c0 1.108-0.896 2-2 2s-2-0.892-2-2v-4c0-1.108 0.896-2 2-2s2 0.892 2 2v4zM54.028 79.704c0 1.108-0.896 2-2 2s-2-0.892-2-2v-4c0-1.108 0.896-2 2-2s2 0.892 2 2v4zM63.944 39.704c-1.104 0-2-0.896-2-2s0.896-2 2-2c1.1 0 2 0.896 2 2s-0.892 2-2 2zM69.992 33.064c-3.884-1.804-8.712-0.652-10.912 2.72-0.384 0.588-1.024 0.908-1.676 0.908-0.376 0-0.752-0.104-1.088-0.328-0.924-0.6-1.184-1.84-0.584-2.764 2.832-4.336 8.52-6.236 13.664-4.952 0.344 1.424 0.54 2.9 0.596 4.416z" fill="#40E0D0"></path></svg>