<svg fill="#BDB76B" xmlns="http://www.w3.org/2000/svg" xmlns:xlink="http://www.w3.org/1999/xlink" version="1.1" viewBox="0 0 96 96" x="0px" y="0px"><path d="M86.812 8.092c-9.112 0-16.5 5.512-19.956 11.62-13.068-10.376-25.908-10.392-38.984-0.016-3.324-6.108-10.144-11.604-19.34-11.604-4.704 0-8.532 3.86-8.532 8.608v21.648c0 5.084 3.972 9.216 8.852 9.216h3.396c-0.596 2.684-0.916 4.896-0.916 7.4 0 22.168 11.78 32.94 36.012 32.94 24.236 0 36.012-10.772 36.012-32.94 0-2.504-0.32-4.708-0.916-7.4h3.4c4.7 0 10.164-4.024 10.164-9.216v-21.648c-0.012-4.584-4.3-8.608-9.192-8.608zM33.128 49.892c-3.52 0-6.384-2.872-6.384-6.408 0-3.528 2.864-6.404 6.384-6.404s6.38 2.872 6.38 6.404c-0.004 3.532-2.86 6.408-6.38 6.408zM55.992 67.564c0 4.416-3.584 8-8 8s-8-3.584-8-8v-12c0-4.408 3.588-8 8-8s8 3.592 8 8v12zM63.796 49.892c-3.516 0-6.384-2.872-6.384-6.408 0-3.528 2.864-6.404 6.384-6.404 3.516 0 6.38 2.872 6.38 6.404-0.004 3.532-2.864 6.408-6.38 6.408z" fill="#BDB76B"></path><path d="M35.532 43.484c0 1.328-1.076 2.404-2.404 2.404s-2.404-1.076-2.404-2.404c0-1.328 1.076-2.404 2.404-2.404s2.404 1.076 2.404 2.404z" fill="#BDB76B"></path><path d="M47.996 51.564c-2.208 0-4 1.796-4 4v12c0 2.212 1.792 4 4 4s4-1.788 4-4v-12c-0.004-2.204-1.792-4-4-4z" fill="#BDB76B"></path><path d="M66.176 43.484c0 1.328-1.066 2.404-2.38 2.404s-2.38-1.076-2.38-2.404c0-1.328 1.066-2.404 2.38-2.404s2.38 1.076 2.38 2.404z" fill="#BDB76B"></path></svg>