<svg fill="#FF4500" xmlns="http://www.w3.org/2000/svg" xmlns:xlink="http://www.w3.org/1999/xlink" version="1.1" x="0px" y="0px" viewBox="0 0 100 100" enable-background="new 0 0 100 100" xml:space="preserve"><path d="M50,15.858c-51.5,0-45.967,46.66-43.525,47.396s7.149-1.104,13.235-16.965c4.992,44.931,18.812,39.375,26.255,34.948  c1.051-0.625,2.51-2.018,2.51-3.435V73.83c0-2.425-3.192-4.333-5.264-6.36c-1.285-1.261-2.062-2.887-2.062-4.668  c0-4.034,3.964-5.092,8.853-5.092c4.891,0,8.854,1.058,8.854,5.092c0,1.781-0.778,3.407-2.064,4.669  c-2.07,2.027-5.262,3.935-5.262,6.359v3.974c0,1.416,1.455,2.811,2.509,3.436c7.446,4.425,21.263,9.976,26.253-34.951  c6.086,15.86,10.793,17.702,13.234,16.965C95.967,62.518,101.5,15.858,50,15.858z M36.352,51.453c-3.259,0-5.9-2.643-5.9-5.902  c0-3.259,2.642-5.901,5.9-5.901c3.26,0,5.902,2.642,5.902,5.901C42.254,48.81,39.611,51.453,36.352,51.453z M63.648,51.453  c-3.26,0-5.902-2.643-5.902-5.902c0-3.259,2.643-5.901,5.902-5.901c3.259,0,5.899,2.642,5.899,5.901  C69.548,48.81,66.907,51.453,63.648,51.453z"></path></svg>