<svg fill="#6A5ACD" xmlns="http://www.w3.org/2000/svg" xmlns:xlink="http://www.w3.org/1999/xlink" version="1.1" x="0px" y="0px" viewBox="0 0 144.083 144" enable-background="new 0 0 144.083 144" xml:space="preserve"><path d="M123.243,60.248c0-10.442-8.086-19.016-18.323-19.829c-6.328-11.674-18.693-19.62-32.879-19.62s-26.55,7.946-32.878,19.62  C28.925,41.232,20.84,49.805,20.84,60.248c0,7.641,4.333,14.278,10.667,17.61c-3.229,4.35-4.917,9.164-4.917,14.178  c0,17.186,20.389,31.166,45.451,31.166s45.452-13.98,45.452-31.166c0-5.014-1.688-9.828-4.918-14.178  C118.91,74.525,123.243,67.889,123.243,60.248z M39.693,77.727c0.622-0.568,0.976-1.373,0.976-2.215V60.31  c0.267-7.594,6.513-13.694,14.174-13.694c7.829,0,14.198,6.368,14.198,14.196c0,1.657,1.343,3,3,3s3-1.343,3-3  c0-7.828,6.368-14.196,14.195-14.196c7.661,0,13.909,6.1,14.176,13.695v15.201c0,0.844,0.354,1.646,0.976,2.215  c2.581,2.359,4.484,4.936,5.669,7.637c-7.523,7.516-23.544,12.359-41.032,12.359c-14.21,0-27.546-3.184-36.172-8.568  C33.599,85.074,35.926,81.172,39.693,77.727z M117.243,60.248c0,5.487-3.202,10.227-7.83,12.487V61.063  c0.007-0.084,0.025-0.166,0.025-0.252c0-0.169-0.021-0.333-0.025-0.501v-2.141c0-3.859-0.588-7.583-1.68-11.088  C113.25,48.926,117.243,54.118,117.243,60.248z M26.84,60.248c0-6.129,3.993-11.321,9.508-13.166  c-1.091,3.505-1.679,7.229-1.679,11.088v2.141c-0.004,0.168-0.025,0.332-0.025,0.501c0,0.086,0.018,0.167,0.025,0.252v11.669  C30.042,70.474,26.84,65.735,26.84,60.248z M72.041,117.201c-19.545,0-35.807-9.115-38.909-21.029  c9.433,4.779,22.353,7.551,35.894,7.551c17.395,0,33.14-4.396,42.466-11.654C111.463,105.93,93.777,117.201,72.041,117.201z"></path><path d="M54.231,64.133c3.177,0,5.751-2.574,5.751-5.749s-2.574-5.749-5.751-5.749c-3.173,0-5.746,2.574-5.746,5.749  S51.059,64.133,54.231,64.133z"></path><circle cx="89.848" cy="58.384" r="5.749"></circle><rect x="59.937" y="76.57" width="6" height="11.131"></rect><rect x="78.145" y="76.57" width="6" height="11.131"></rect></svg>