<svg fill="#87CEEB" xmlns="http://www.w3.org/2000/svg" xmlns:xlink="http://www.w3.org/1999/xlink" version="1.1" x="0px" y="0px" viewBox="0 0 144.083 144" enable-background="new 0 0 144.083 144" xml:space="preserve"><path d="M127.039,31.983c-3.041-3-7.068-4.652-11.34-4.652c-4.354,0-8.435,1.706-11.493,4.806l-3.456,3.503  c-8.858-5.824-18.732-8.89-28.708-8.89c-9.976,0-19.85,3.064-28.708,8.89l-3.457-3.504c-3.058-3.099-7.14-4.805-11.493-4.805  c-4.271,0-8.298,1.652-11.339,4.652c-6.335,6.253-6.403,16.494-0.152,22.831l5.1,5.17C18.804,66.639,17.127,73.517,17.127,80  c0,22.977,21.042,37.25,54.914,37.25c33.871,0,54.913-14.273,54.913-37.25c0-6.484-1.677-13.363-4.864-20.016l5.102-5.17  C133.442,48.478,133.374,38.235,127.039,31.983z M72.042,111.25c-23.646,0-48.914-8.209-48.914-31.25  c0-6.149,1.783-12.778,5.156-19.171c0.522-0.828,7.695-12.075,15.758-18.454c0.023-0.018,0.028-0.047,0.046-0.068  c0.218-0.088,0.432-0.194,0.63-0.337c8.362-6.032,17.811-9.22,27.323-9.22c9.514,0,18.961,3.188,27.322,9.22  c0.198,0.144,0.412,0.249,0.631,0.338c0.019,0.021,0.023,0.05,0.046,0.067c8.055,6.372,15.221,17.6,15.757,18.45  c3.373,6.393,5.157,13.023,5.157,19.175C120.955,103.041,95.687,111.25,72.042,111.25z"></path><path d="M33.961,66.045c-5.761,5.76-6.869,13.992-2.475,18.385c4.393,4.395,12.624,3.285,18.385-2.475  c5.76-5.76,6.868-13.991,2.475-18.385S39.721,60.285,33.961,66.045z M41.042,79.625c-2.969,0-5.375-2.406-5.375-5.375  s2.406-5.375,5.375-5.375s5.375,2.406,5.375,5.375S44.01,79.625,41.042,79.625z"></path><path d="M110.121,66.045c-5.76-5.76-13.99-6.868-18.385-2.475c-4.393,4.394-3.285,12.625,2.475,18.385  c5.762,5.76,13.992,6.869,18.385,2.475C116.99,80.037,115.882,71.805,110.121,66.045z M103.041,79.625  c-2.969,0-5.375-2.406-5.375-5.375s2.406-5.375,5.375-5.375s5.375,2.406,5.375,5.375S106.009,79.625,103.041,79.625z"></path><path d="M77.663,86.279c1.358-0.286,2.378-1.49,2.378-2.934c0-1.657-1.343-3-3-3h-9.999c-1.657,0-3,1.343-3,3  c0,1.444,1.021,2.647,2.379,2.934l-4.867,4.867c-1.172,1.171-1.172,3.071,0,4.242c0.585,0.586,1.354,0.879,2.121,0.879  s1.536-0.293,2.121-0.879l6.246-6.246l6.246,6.246c0.586,0.586,1.354,0.879,2.121,0.879s1.535-0.293,2.121-0.879  c1.172-1.171,1.172-3.07,0-4.242L77.663,86.279z"></path></svg>