<svg fill="#BA55D3" xmlns="http://www.w3.org/2000/svg" xmlns:xlink="http://www.w3.org/1999/xlink" version="1.1" viewBox="0 0 96 96" x="0px" y="0px"><path d="M41.916 23c0 11.648-9.104 21.184-20.568 21.928 2.892 6.82 13.872 12.072 26.568 12.072s23.676-5.252 26.568-12.072c-11.46-0.744-20.572-10.28-20.572-21.928 0-1.944 0.28-3.824 0.756-5.62-4.48-0.444-9.032-0.444-13.512 0 0.484 1.796 0.76 3.68 0.76 5.62z" fill="#BA55D3"></path><path d="M78.764 44.796c-2.5 9.324-15.136 16.204-30.844 16.204s-28.344-6.888-30.848-16.204c-4.064-0.524-7.78-2.16-10.836-4.6-0.164 0.932-0.312 1.868-0.312 2.808 0 14.332 18.84 26 42 26 23.156 0 42-11.668 42-26 0-0.94-0.148-1.876-0.312-2.808-3.064 2.44-6.78 4.072-10.848 4.6z" fill="#BA55D3"></path><path d="M21.916 23c0 1.105-0.895 2-2 2s-2-0.895-2-2c0-1.105 0.895-2 2-2s2 0.895 2 2z" fill="#BA55D3"></path><path d="M19.916 5c-9.924 0-18 8.076-18 18 0 9.928 8.076 18 18 18s18-8.072 18-18c0-9.92-8.072-18-18-18zM19.916 29c-3.308 0-6-2.692-6-6s2.692-6 6-6 6 2.692 6 6-2.688 6-6 6z" fill="#BA55D3"></path><path d="M75.916 5c-9.92 0-18 8.076-18 18 0 9.928 8.080 18 18 18 9.924 0 18-8.072 18-18 0-9.92-8.072-18-18-18zM75.916 29c-3.304 0-6-2.692-6-6s2.696-6 6-6c3.308 0 6 2.692 6 6s-2.688 6-6 6z" fill="#BA55D3"></path><path d="M77.916 23c0 1.105-0.895 2-2 2s-2-0.895-2-2c0-1.105 0.895-2 2-2s2 0.895 2 2z" fill="#BA55D3"></path><path d="M90.072 55.188c-7.040 10.584-23.052 17.812-42.156 17.812-19.028 0-34.988-7.18-42.064-17.696-3.828 5.884-5.852 12.444-5.852 19.28v16.416h96v-16.416c0-6.88-2.056-13.484-5.928-19.396z" fill="#BA55D3"></path></svg>