<svg fill="#DA70D6" xmlns="http://www.w3.org/2000/svg" xmlns:xlink="http://www.w3.org/1999/xlink" version="1.1" x="0px" y="0px" viewBox="0 0 24 24" enable-background="new 0 0 24 24" xml:space="preserve"><path d="M21,7.9C20.7,5,18.9,2,15.5,2c-1.7,0-3.2,0.5-4.4,1.4C10.5,2.7,9.6,2,8,2C4.8,2,2,3.8,2,8c0,5.2,5.3,8,9,8  c0,0-1-2.4,0.4-4.6C12.6,9.2,11.2,7.2,11,7c0.4-0.3,0.8-0.4,1.3-0.1c1.8,1.2,0.7,4,0,5.3c0.9,0.4,2,0.7,3.1,0.7  c0.6,0,1.1-0.1,1.6-0.2l2.2,5.4C19.6,19,19,20,18.1,20H17v2h1.9c1.7,0,3.1-1.4,3.1-3.1L21,7.9z M18,9c-0.6,0-1-0.4-1-1s0.4-1,1-1  c0.6,0,1,0.4,1,1S18.6,9,18,9z"></path></svg>