<svg fill="#FF6347" xmlns="http://www.w3.org/2000/svg" xmlns:xlink="http://www.w3.org/1999/xlink" version="1.1" x="0px" y="0px" viewBox="0 0 24 24" enable-background="new 0 0 24 24" xml:space="preserve"><g><path d="M22,12c-1-0.4-6-4-6-4c-3-4.3-5.5-4.6-7-4.8C7.5,3.1,4,2,4,2l1.8,1.8l-2.1,0C5.6,4.4,6.1,5.6,5,6c-1.2,0.4-3,4-3,4v12h11   c0.4-1,0-2,0-2c-1-2-0.7-4.7,0-5.5c0.7-0.7,7,2.5,7,2.5l-5-5H22z M14.3,11.2c-0.4,0-0.8,0-1.2,0c-0.1,0.2,0,0.4,0.1,0.5   c0.1,0.2,0.3,0.2,0.5,0.4c0.4,0.3,0.6,0.7,0.7,1.2c0,0.1,0,0.2,0,0.4c-0.2,0.3-0.6,0.2-1,0.2c-0.8,0-1.5,0.6-1.7,1.4   c-0.3,0.7-0.2,1.6-0.1,2.3l0.4,1l-0.4,1.2c0.4-1.1-0.2-2.3-0.9-3.2c-0.8-0.9-1.7-1.6-2.4-2.6c-0.6-0.9-0.8-2-0.8-3   c0.2,0.2,0.5,0.3,0.7,0.4c-0.1-0.3-0.1-0.7-0.1-1c0-0.7,0-1.4,0.5-1.9C9,7.9,9.6,7.8,10.2,8c0-0.3-0.4-0.4-0.5-0.6   c-0.1-0.2,0-0.6,0.2-0.7c0.2-0.2,0.5-0.3,0.7-0.4C11,6.2,11.5,6,11.9,6c0.7,0,1.3,0.4,1.8,0.8c0.5,0.4,0.9,1,1.3,1.6   c0.2,0.3,0.4,0.6,0.4,0.9c0,0.3-0.1,0.7-0.4,0.8c-0.3,0.1-0.7,0-1,0.1C14.1,10.6,14.2,10.9,14.3,11.2z"></path><circle cx="12" cy="9" r="1"></circle></g></svg>