<svg fill="#0000CD" xmlns="http://www.w3.org/2000/svg" xmlns:xlink="http://www.w3.org/1999/xlink" version="1.1" x="0px" y="0px" viewBox="0 0 144.083 144" enable-background="new 0 0 144.083 144" xml:space="preserve"><path d="M118.287,40.523c-4.348-5.903-10.694-9.024-18.354-9.024c-10.921,0-18.688,2.092-23.68,6.384  c1.352-7.588,7.982-13.373,15.953-13.373c1.657,0,3-1.343,3-3s-1.343-3-3-3c-8.625,0-16.112,4.942-19.792,12.141  c-3.681-7.199-11.168-12.141-19.792-12.141c-1.657,0-3,1.343-3,3s1.343,3,3,3c8.249,0,15.063,6.195,16.074,14.174  c-4.939-4.832-12.968-7.186-24.547-7.186c-7.66,0-14.006,3.121-18.354,9.024c-6.306,8.561-6.725,20.657-5.023,26.137  c3.515,11.312,12.94,17.136,22.304,19.329c-5.039,3.604-10.706,9.586-10.706,19.392c0,12.779,8.454,20.108,23.195,20.108  c5.965,0,12.694-2.217,16.476-10.724c3.781,8.507,10.509,10.724,16.474,10.724c14.741,0,23.195-7.329,23.195-20.108  c0-9.806-5.667-15.788-10.705-19.392c9.363-2.192,18.788-8.017,22.305-19.329C125.012,61.181,124.592,49.084,118.287,40.523z   M69.038,97.284c0,15.149-4.281,22.205-13.472,22.205c-11.41,0-17.195-4.747-17.195-14.108c0-10.329,8.519-14.99,13.095-17.495  c0.987-0.54,1.767-0.966,2.374-1.396c1.066-0.755,1.521-2.112,1.125-3.357s-1.552-2.091-2.859-2.091  c-2.106,0-20.723-0.453-25.604-16.16c-1.357-4.37-0.67-14.291,4.124-20.799c3.217-4.368,7.767-6.583,13.523-6.583  c10.025,0,16.718,1.823,20.46,5.573c4.121,4.13,4.422,10.465,4.431,17.293c0,0.336,0,0.668,0,1.001c0,0.235,0,0.469-0.001,0.706  L69.038,97.284z M117.58,64.88c-4.882,15.708-23.497,16.161-25.604,16.161c-1.307,0-2.463,0.846-2.858,2.091  c-0.396,1.244,0.059,2.603,1.125,3.357c0.607,0.43,1.387,0.856,2.374,1.397c4.576,2.504,13.094,7.166,13.094,17.494  c0,9.361-5.785,14.108-17.195,14.108c-9.19,0-13.472-7.056-13.472-22.205l-0.002-35.211c0-0.121,0-0.241-0.001-0.361  c0.001-0.479,0.001-0.961,0-1.446c0.013-6.79,0.331-13.083,4.432-17.193c3.742-3.75,10.435-5.574,20.461-5.574  c5.756,0,10.306,2.214,13.522,6.582C118.25,50.589,118.937,60.511,117.58,64.88z"></path><circle cx="46.208" cy="59.923" r="12.118"></circle><circle cx="97.875" cy="59.923" r="12.118"></circle><circle cx="52.993" cy="104.068" r="7.997"></circle><circle cx="91.088" cy="104.068" r="7.997"></circle></svg>