<svg fill="#008B8B" xmlns="http://www.w3.org/2000/svg" xmlns:xlink="http://www.w3.org/1999/xlink" version="1.1" x="0px" y="0px" viewBox="0 0 24 24" enable-background="new 0 0 24 24" xml:space="preserve"><g><path d="M6.5,9.7L7,7.5L5.5,5.4l0,0L4.1,6c-4,2.7-1,6-1,6C2.3,10.7,3.6,9.7,6.5,9.7z"></path><path d="M10,3C9.3,3.5,8.2,4.1,7.3,4.5l1.8,2.6L8.5,9.8C9,9.9,9.5,9.9,10,10c5.2,1,4.9,3,4.9,3V20c-4.1,0-6.9,2-6.9,2H22   c0,0,0-5,0-13S12.3,1.3,10,3z M13,7c-0.6,0-1-0.5-1-1c0-0.6,0.4-1,1-1c0.6,0,1,0.5,1,1C14,6.5,13.6,7,13,7z"></path></g></svg>